Geologica-SharpThin.ufo
<glyph name="parenright" format="2">
  <advance width="666"/>
  <unicode hex="0029"/>
  <outline>
    <contour>
      <point x="225" y="-228" type="line"/>
      <point x="390" y="38"/>
      <point x="472" y="363"/>
      <point x="472" y="688" type="curve" smooth="yes"/>
      <point x="472" y="1013"/>
      <point x="390" y="1340"/>
      <point x="225" y="1608" type="curve"/>
      <point x="134" y="1608" type="line"/>
      <point x="291" y="1353"/>
      <point x="370" y="1016"/>
      <point x="370" y="684" type="curve" smooth="yes"/>
      <point x="370" y="351"/>
      <point x="291" y="19"/>
      <point x="134" y="-228" type="curve"/>
    </contour>
  </outline>
</glyph>
<glyph name="slash" format="2">
  <advance width="892"/>
  <unicode hex="002F"/>
  <outline>
    <contour>
      <point x="125" y="-220" type="line"/>
      <point x="884" y="1600" type="line"/>
      <point x="767" y="1600" type="line"/>
      <point x="8" y="-220" type="line"/>
    </contour>
  </outline>
</glyph>
<glyph name="four" format="2">
  <advance width="1200"/>
  <unicode hex="0034"/>
  <outline>
    <contour>
      <point x="772" y="0" type="line"/>
      <point x="884" y="0" type="line"/>
      <point x="884" y="312" type="line"/>
      <point x="1126" y="312" type="line"/>
      <point x="1126" y="420" type="line"/>
      <point x="884" y="420" type="line"/>
      <point x="884" y="768" type="line"/>
      <point x="772" y="768" type="line"/>
      <point x="772" y="420" type="line"/>
      <point x="174" y="420" type="line"/>
      <point x="734" y="1400" type="line"/>
      <point x="604" y="1400" type="line"/>
      <point x="44" y="412" type="line"/>
      <point x="44" y="312" type="line"/>
      <point x="772" y="312" type="line"/>
    </contour>
  </outline>
</glyph>
<glyph name="nine" format="2">
  <advance width="1248"/>
  <unicode hex="0039"/>
  <outline>
    <contour>
      <point x="214" y="-23" type="line"/>
      <point x="816" y="-86"/>
      <point x="1108" y="339"/>
      <point x="1108" y="814" type="curve" smooth="yes"/>
      <point x="1108" y="1208"/>
      <point x="898" y="1430"/>
      <point x="594" y="1430" type="curve" smooth="yes"/>
      <point x="304" y="1430"/>
      <point x="100" y="1231"/>
      <point x="100" y="974" type="curve" smooth="yes"/>
      <point x="100" y="711"/>
      <point x="308" y="528"/>
      <point x="570" y="528" type="curve" smooth="yes"/>
      <point x="754" y="528"/>
      <point x="914" y="621"/>
      <point x="998" y="765" type="curve"/>
      <point x="983" y="367"/>
      <point x="717" y="21"/>
      <point x="214" y="91" type="curve"/>
    </contour>
    <contour>
      <point x="594" y="642" type="curve" smooth="yes"/>
      <point x="386" y="642"/>
      <point x="224" y="788"/>
      <point x="224" y="980" type="curve" smooth="yes"/>
      <point x="224" y="1177"/>
      <point x="378" y="1316"/>
      <point x="594" y="1316" type="curve" smooth="yes"/>
      <point x="810" y="1316"/>
      <point x="964" y="1177"/>
      <point x="964" y="980" type="curve" smooth="yes"/>
      <point x="964" y="788"/>
      <point x="802" y="642"/>
    </contour>
  </outline>
</glyph>
<glyph name="less" format="2">
  <advance width="1296"/>
  <unicode hex="003C"/>
  <outline>
    <contour>
      <point x="1116" y="236" type="line"/>
      <point x="1116" y="355" type="line"/>
      <point x="334" y="668" type="line"/>
      <point x="1116" y="979" type="line"/>
      <point x="1116" y="1096" type="line"/>
      <point x="180" y="714" type="line"/>
      <point x="180" y="622" type="line"/>
    </contour>
  </outline>
</glyph>
<glyph name="question" format="2">
  <advance width="950"/>
  <unicode hex="003F"/>
  <outline>
    <contour>
      <point x="352" y="378" type="curve"/>
      <point x="472" y="378" type="line"/>
      <point x="432" y="590"/>
      <point x="462" y="654"/>
      <point x="604" y="744" type="curve" smooth="yes"/>
      <point x="798" y="868"/>
      <point x="846" y="974"/>
      <point x="846" y="1090" type="curve" smooth="yes"/>
      <point x="846" y="1308"/>
      <point x="672" y="1430"/>
      <point x="424" y="1430" type="curve" smooth="yes"/>
      <point x="302" y="1430"/>
      <point x="202" y="1400"/>
      <point x="118" y="1342" type="curve"/>
      <point x="118" y="1224" type="line"/>
      <point x="186" y="1282"/>
      <point x="292" y="1318"/>
      <point x="422" y="1318" type="curve" smooth="yes"/>
      <point x="610" y="1318"/>
      <point x="726" y="1240"/>
      <point x="726" y="1082" type="curve" smooth="yes"/>
      <point x="726" y="992"/>
      <point x="688" y="922"/>
      <point x="524" y="820" type="curve" smooth="yes"/>
      <point x="332" y="700"/>
      <point x="306" y="618"/>
    </contour>
    <contour>
      <point x="426" y="-30" type="curve" smooth="yes"/>
      <point x="488" y="-30"/>
      <point x="536" y="14"/>
      <point x="536" y="74" type="curve" smooth="yes"/>
      <point x="536" y="134"/>
      <point x="488" y="178"/>
      <point x="426" y="178" type="curve" smooth="yes"/>
      <point x="364" y="178"/>
      <point x="316" y="134"/>
      <point x="316" y="74" type="curve" smooth="yes"/>
      <point x="316" y="14"/>
      <point x="364" y="-30"/>
    </contour>
  </outline>
</glyph>
<glyph name="E" format="2">
  <advance width="1180"/>
  <unicode hex="0045"/>
  <anchor x="602" y="0" name="bottom"/>
  <anchor x="1018" y="0" name="ogonek"/>
  <anchor x="602" y="1400" name="top"/>
  <anchor x="120" y="1400" name="topleft"/>
  <outline>
    <contour>
      <point x="200" y="0" type="line"/>
      <point x="1018" y="0" type="line"/>
      <point x="1042" y="108" type="line"/>
      <point x="316" y="108" type="line"/>
      <point x="316" y="688" type="line"/>
      <point x="944" y="688" type="line"/>
      <point x="944" y="796" type="line"/>
      <point x="316" y="796" type="line"/>
      <point x="316" y="1292" type="line"/>
      <point x="1024" y="1292" type="line"/>
      <point x="1024" y="1400" type="line"/>
      <point x="200" y="1400" type="line"/>
    </contour>
  </outline>
</glyph>
<glyph name="G" format="2">
  <advance width="1500"/>
  <unicode hex="0047"/>
  <anchor x="860" y="0" name="bottom"/>
  <anchor x="800" y="1400" name="top"/>
  <outline>
    <contour>
      <point x="886" y="-30" type="curve" smooth="yes"/>
      <point x="1010" y="-30"/>
      <point x="1226" y="16"/>
      <point x="1320" y="92" type="curve"/>
      <point x="1320" y="686" type="line"/>
      <point x="872" y="686" type="line"/>
      <point x="848" y="578" type="line"/>
      <point x="1208" y="578" type="line"/>
      <point x="1208" y="150" type="line"/>
      <point x="1150" y="112"/>
      <point x="1036" y="78"/>
      <point x="888" y="78" type="curve" smooth="yes"/>
      <point x="492" y="78"/>
      <point x="232" y="310"/>
      <point x="232" y="700" type="curve" smooth="yes"/>
      <point x="232" y="1078"/>
      <point x="478" y="1318"/>
      <point x="850" y="1318" type="curve" smooth="yes"/>
      <point x="984" y="1318"/>
      <point x="1126" y="1284"/>
      <point x="1240" y="1216" type="curve"/>
      <point x="1240" y="1335" type="line"/>
      <point x="1135" y="1400"/>
      <point x="998" y="1430"/>
      <point x="860" y="1430" type="curve" smooth="yes"/>
      <point x="418" y="1430"/>
      <point x="112" y="1132"/>
      <point x="112" y="696" type="curve" smooth="yes"/>
      <point x="112" y="262"/>
      <point x="432" y="-30"/>
    </contour>
  </outline>
</glyph>
<glyph name="M" format="2">
  <advance width="1784"/>
  <unicode hex="004D"/>
  <outline>
    <contour>
      <point x="200" y="0" type="line"/>
      <point x="306" y="0" type="line"/>
      <point x="306" y="1228" type="line"/>
      <point x="290" y="1220" type="line"/>
      <point x="840" y="340" type="line"/>
      <point x="946" y="340" type="line"/>
      <point x="1494" y="1220" type="line"/>
      <point x="1468" y="1228" type="line"/>
      <point x="1468" y="0" type="line"/>
      <point x="1584" y="0" type="line"/>
      <point x="1584" y="1400" type="line"/>
      <point x="1476" y="1400" type="line"/>
      <point x="882" y="424" type="line"/>
      <point x="924" y="424" type="line"/>
      <point x="314" y="1400" type="line"/>
      <point x="200" y="1400" type="line"/>
    </contour>
  </outline>
</glyph>
<glyph name="bracketleft" format="2">
  <advance width="666"/>
  <unicode hex="005B"/>
  <outline>
    <contour>
      <point x="224" y="-220" type="line"/>
      <point x="532" y="-220" type="line"/>
      <point x="532" y="-124" type="line"/>
      <point x="324" y="-124" type="line"/>
      <point x="324" y="1504" type="line"/>
      <point x="532" y="1504" type="line"/>
      <point x="532" y="1600" type="line"/>
      <point x="224" y="1600" type="line"/>
    </contour>
  </outline>
</glyph>
<glyph name="backslash" format="2">
  <advance width="892"/>
  <unicode hex="005C"/>
  <outline>
    <contour>
      <point x="767" y="-220" type="line"/>
      <point x="884" y="-220" type="line"/>
      <point x="125" y="1600" type="line"/>
      <point x="8" y="1600" type="line"/>
    </contour>
  </outline>
</glyph>
<glyph name="underscore" format="2">
  <advance width="1060"/>
  <unicode hex="005F"/>
  <outline>
    <contour>
      <point x="30" y="-282" type="line"/>
      <point x="1030" y="-282" type="line"/>
      <point x="1030" y="-190" type="line"/>
      <point x="30" y="-190" type="line"/>
    </contour>
  </outline>
</glyph>
<glyph name="u" format="2">
  <advance width="1142"/>
  <unicode hex="0075"/>
  <anchor x="554" y="0" name="bottom"/>
  <anchor x="972" y="0" name="descender"/>
  <anchor x="972" y="960" name="horn"/>
  <anchor x="972" y="0" name="ogonek"/>
  <anchor x="562" y="960" name="top"/>
  <outline>
    <contour>
      <point x="534" y="-30" type="curve" smooth="yes"/>
      <point x="654" y="-30"/>
      <point x="770" y="14"/>
      <point x="860" y="126" type="curve"/>
      <point x="860" y="0" type="line"/>
      <point x="972" y="0" type="line"/>
      <point x="972" y="1000" type="line"/>
      <point x="860" y="858" type="line"/>
      <point x="860" y="390" type="line" smooth="yes"/>
      <point x="860" y="204"/>
      <point x="722" y="78"/>
      <point x="554" y="78" type="curve" smooth="yes"/>
      <point x="380" y="78"/>
      <point x="272" y="188"/>
      <point x="272" y="348" type="curve" smooth="yes"/>
      <point x="272" y="1000" type="line"/>
      <point x="160" y="858" type="line"/>
      <point x="160" y="314" type="line" smooth="yes"/>
      <point x="160" y="152"/>
      <point x="282" y="-30"/>
    </contour>
  </outline>
</glyph>
<glyph name="braceright" format="2">
  <advance width="666"/>
  <unicode hex="007D"/>
  <outline>
    <contour>
      <point x="134" y="-224" type="line"/>
      <point x="340" y="-256"/>
      <point x="444" y="-166"/>
      <point x="424" y="-4" type="curve" smooth="yes"/>
      <point x="362" y="478" type="line" smooth="yes"/>
      <point x="344" y="616"/>
      <point x="368" y="644"/>
      <point x="532" y="644" type="curve"/>
      <point x="532" y="740" type="line"/>
      <point x="368" y="740"/>
      <point x="344" y="768"/>
      <point x="362" y="904" type="curve" smooth="yes"/>
      <point x="422" y="1380" type="line" smooth="yes"/>
      <point x="442" y="1544"/>
      <point x="336" y="1636"/>
      <point x="134" y="1604" type="curve"/>
      <point x="134" y="1508" type="line"/>
      <point x="278" y="1522"/>
      <point x="322" y="1480"/>
      <point x="310" y="1374" type="curve" smooth="yes"/>
      <point x="256" y="920" type="line" smooth="yes"/>
      <point x="238" y="776"/>
      <point x="272" y="712"/>
      <point x="380" y="692" type="curve"/>
      <point x="380" y="690" type="line"/>
      <point x="270" y="668"/>
      <point x="238" y="606"/>
      <point x="256" y="462" type="curve" smooth="yes"/>
      <point x="310" y="6" type="line" smooth="yes"/>
      <point x="322" y="-102"/>
      <point x="280" y="-142"/>
      <point x="134" y="-128" type="curve"/>
    </contour>
  </outline>
</glyph>
<glyph name="exclamdown" format="2">
  <advance width="640"/>
  <unicode hex="00A1"/>
  <outline>
    <contour>
      <point x="240" y="-430" type="line"/>
      <point x="380" y="-430" type="line"/>
      <point x="360" y="530" type="line"/>
      <point x="260" y="530" type="line"/>
    </contour>
    <contour>
      <point x="310" y="792" type="curve" smooth="yes"/>
      <point x="372" y="792"/>
      <point x="420" y="836"/>
      <point x="420" y="896" type="curve" smooth="yes"/>
      <point x="420" y="956"/>
      <point x="372" y="1000"/>
      <point x="310" y="1000" type="curve" smooth="yes"/>
      <point x="248" y="1000"/>
      <point x="200" y="956"/>
      <point x="200" y="896" type="curve" smooth="yes"/>
      <point x="200" y="836"/>
      <point x="248" y="792"/>
    </contour>
  </outline>
</glyph>
<glyph name="brokenbar" format="2">
  <advance width="500"/>
  <unicode hex="00A6"/>
  <outline>
    <contour>
      <point x="200" y="810" type="line"/>
      <point x="300" y="810" type="line"/>
      <point x="300" y="1480" type="line"/>
      <point x="200" y="1480" type="line"/>
    </contour>
    <contour>
      <point x="200" y="-100" type="line"/>
      <point x="300" y="-100" type="line"/>
      <point x="300" y="570" type="line"/>
      <point x="200" y="570" type="line"/>
    </contour>
  </outline>
</glyph>
<glyph name="degree" format="2">
  <advance width="926"/>
  <unicode hex="00B0"/>
  <outline>
    <contour>
      <point x="464" y="710" type="curve" smooth="yes"/>
      <point x="664" y="710"/>
      <point x="826" y="870"/>
      <point x="826" y="1066" type="curve" smooth="yes"/>
      <point x="826" y="1260"/>
      <point x="664" y="1420"/>
      <point x="464" y="1420" type="curve" smooth="yes"/>
      <point x="264" y="1420"/>
      <point x="100" y="1260"/>
      <point x="100" y="1066" type="curve" smooth="yes"/>
      <point x="100" y="870"/>
      <point x="264" y="710"/>
    </contour>
    <contour>
      <point x="464" y="806" type="curve" smooth="yes"/>
      <point x="308" y="806"/>
      <point x="200" y="914"/>
      <point x="200" y="1066" type="curve" smooth="yes"/>
      <point x="200" y="1218"/>
      <point x="308" y="1324"/>
      <point x="464" y="1324" type="curve" smooth="yes"/>
      <point x="622" y="1324"/>
      <point x="726" y="1222"/>
      <point x="726" y="1066" type="curve" smooth="yes"/>
      <point x="726" y="910"/>
      <point x="622" y="806"/>
    </contour>
  </outline>
</glyph>
<glyph name="micro" format="2">
  <advance width="1176"/>
  <unicode hex="00B5"/>
  <outline>
    <contour>
      <point x="170" y="-420" type="line"/>
      <point x="292" y="-420" type="line"/>
      <point x="274" y="92" type="line"/>
      <point x="344" y="4"/>
      <point x="448" y="-30"/>
      <point x="568" y="-30" type="curve" smooth="yes"/>
      <point x="688" y="-30"/>
      <point x="804" y="14"/>
      <point x="894" y="126" type="curve"/>
      <point x="894" y="0" type="line"/>
      <point x="1006" y="0" type="line"/>
      <point x="1006" y="1000" type="line"/>
      <point x="894" y="858" type="line"/>
      <point x="894" y="390" type="line" smooth="yes"/>
      <point x="894" y="204"/>
      <point x="756" y="78"/>
      <point x="588" y="78" type="curve" smooth="yes"/>
      <point x="420" y="78"/>
      <point x="282" y="204"/>
      <point x="282" y="390" type="curve" smooth="yes"/>
      <point x="282" y="1000" type="line"/>
      <point x="170" y="858" type="line"/>
    </contour>
  </outline>
</glyph>
<glyph name="ordmasculine" format="2">
  <advance width="834"/>
  <unicode hex="00BA"/>
  <anchor x="416" y="722" name="bottom"/>
  <anchor x="678" y="1354" name="horn"/>
  <anchor x="536" y="722" name="ogonek"/>
  <anchor x="416" y="1354" name="top"/>
  <outline>
    <contour>
      <point x="416" y="702" type="curve" smooth="yes"/>
      <point x="616" y="702"/>
      <point x="764" y="856"/>
      <point x="764" y="1038" type="curve" smooth="yes"/>
      <point x="764" y="1220"/>
      <point x="616" y="1374"/>
      <point x="416" y="1374" type="curve" smooth="yes"/>
      <point x="218" y="1374"/>
      <point x="70" y="1220"/>
      <point x="70" y="1038" type="curve" smooth="yes"/>
      <point x="70" y="856"/>
      <point x="218" y="702"/>
    </contour>
    <contour>
      <point x="416" y="796" type="curve" smooth="yes"/>
      <point x="276" y="796"/>
      <point x="176" y="890"/>
      <point x="176" y="1038" type="curve" smooth="yes"/>
      <point x="176" y="1186"/>
      <point x="276" y="1280"/>
      <point x="416" y="1280" type="curve" smooth="yes"/>
      <point x="556" y="1280"/>
      <point x="658" y="1186"/>
      <point x="658" y="1038" type="curve" smooth="yes"/>
      <point x="658" y="890"/>
      <point x="556" y="796"/>
    </contour>
  </outline>
</glyph>
<glyph name="aogonek" format="2">
  <advance width="1048"/>
  <unicode hex="0105"/>
  <anchor x="495" y="0" name="bottom"/>
  <anchor x="891" y="0" name="ogonek"/>
  <anchor x="495" y="960" name="top"/>
  <outline>
    <contour>
      <point x="731" y="-450" type="curve" smooth="yes"/>
      <point x="786" y="-450"/>
      <point x="843" y="-435"/>
      <point x="891" y="-410" type="curve"/>
      <point x="891" y="-293" type="line"/>
      <point x="854" y="-321"/>
      <point x="807" y="-340"/>
      <point x="757" y="-340" type="curve" smooth="yes"/>
      <point x="675" y="-340"/>
      <point x="649" y="-291"/>
      <point x="651" y="-229" type="curve" smooth="yes"/>
      <point x="655" y="-105"/>
      <point x="751" y="-38"/>
      <point x="891" y="0" type="curve"/>
      <point x="856.0" y="59.5" type="line"/>
      <point x="686.0" y="18.5"/>
      <point x="535.0" y="-89.5"/>
      <point x="531" y="-255" type="curve" smooth="yes"/>
      <point x="529" y="-362"/>
      <point x="599" y="-450"/>
    </contour>
    <component base="a"/>
  </outline>
</glyph>
<glyph name="eogonek" format="2">
  <advance width="1101"/>
  <unicode hex="0119"/>
  <anchor x="556" y="0" name="bottom"/>
  <anchor x="880" y="0" name="ogonek"/>
  <anchor x="572" y="960" name="top"/>
  <outline>
    <contour>
      <point x="610" y="-30" type="curve" smooth="yes"/>
      <point x="725" y="-30"/>
      <point x="849" y="-2"/>
      <point x="948" y="59" type="curve"/>
      <point x="948" y="184" type="line"/>
      <point x="864" y="116"/>
      <point x="742" y="78"/>
      <point x="624" y="78" type="curve" smooth="yes"/>
      <point x="356" y="78"/>
      <point x="192" y="234"/>
      <point x="204" y="468" type="curve"/>
      <point x="1018" y="468" type="line"/>
      <point x="1046" y="764"/>
      <point x="868" y="990"/>
      <point x="572" y="990" type="curve" smooth="yes"/>
      <point x="292" y="990"/>
      <point x="80" y="770"/>
      <point x="80" y="476" type="curve" smooth="yes"/>
      <point x="80" y="174"/>
      <point x="298" y="-30"/>
    </contour>
    <contour>
      <point x="208" y="572" type="line"/>
      <point x="232" y="768"/>
      <point x="370" y="882"/>
      <point x="572" y="882" type="curve" smooth="yes"/>
      <point x="780" y="882"/>
      <point x="888" y="768"/>
      <point x="898" y="572" type="curve"/>
    </contour>
    <contour>
      <point x="720" y="-450" type="curve" smooth="yes"/>
      <point x="775" y="-450"/>
      <point x="832" y="-435"/>
      <point x="880" y="-410" type="curve"/>
      <point x="880" y="-293" type="line"/>
      <point x="843" y="-321"/>
      <point x="796" y="-340"/>
      <point x="746" y="-340" type="curve" smooth="yes"/>
      <point x="664" y="-340"/>
      <point x="638" y="-291"/>
      <point x="640" y="-229" type="curve" smooth="yes"/>
      <point x="644" y="-105"/>
      <point x="740" y="-38"/>
      <point x="863" y="17" type="curve"/>
      <point x="825" y="81" type="line"/>
      <point x="671" y="24"/>
      <point x="524" y="-86"/>
      <point x="520" y="-255" type="curve" smooth="yes"/>
      <point x="518" y="-362"/>
      <point x="588" y="-450"/>
    </contour>
  </outline>
</glyph>
<glyph name="OE" format="2">
  <advance width="2424"/>
  <unicode hex="0152"/>
  <outline>
    <contour>
      <point x="832" y="-30" type="curve" smooth="yes"/>
      <point x="1106" y="-30"/>
      <point x="1338" y="114"/>
      <point x="1460" y="336" type="curve"/>
      <point x="1444" y="358" type="line"/>
      <point x="1444" y="0" type="line"/>
      <point x="2262" y="0" type="line"/>
      <point x="2286" y="108" type="line"/>
      <point x="1560" y="108" type="line"/>
      <point x="1560" y="688" type="line"/>
      <point x="2188" y="688" type="line"/>
      <point x="2188" y="796" type="line"/>
      <point x="1560" y="796" type="line"/>
      <point x="1560" y="1292" type="line"/>
      <point x="2268" y="1292" type="line"/>
      <point x="2268" y="1400" type="line"/>
      <point x="1444" y="1400" type="line"/>
      <point x="1444" y="1040" type="line"/>
      <point x="1460" y="1062" type="line"/>
      <point x="1338" y="1284"/>
      <point x="1106" y="1430"/>
      <point x="832" y="1430" type="curve" smooth="yes"/>
      <point x="424" y="1430"/>
      <point x="112" y="1116"/>
      <point x="112" y="700" type="curve" smooth="yes"/>
      <point x="112" y="286"/>
      <point x="424" y="-30"/>
    </contour>
    <contour>
      <point x="838" y="82" type="curve" smooth="yes"/>
      <point x="502" y="82"/>
      <point x="232" y="328"/>
      <point x="232" y="700" type="curve" smooth="yes"/>
      <point x="232" y="1072"/>
      <point x="502" y="1318"/>
      <point x="838" y="1318" type="curve" smooth="yes"/>
      <point x="1174" y="1318"/>
      <point x="1444" y="1072"/>
      <point x="1444" y="700" type="curve" smooth="yes"/>
      <point x="1444" y="328"/>
      <point x="1174" y="82"/>
    </contour>
  </outline>
</glyph>
<glyph name="uogonek" format="2">
  <advance width="1142"/>
  <unicode hex="0173"/>
  <anchor x="554" y="0" name="bottom"/>
  <anchor x="972" y="0" name="descender"/>
  <anchor x="972" y="960" name="horn"/>
  <anchor x="972" y="0" name="ogonek"/>
  <anchor x="562" y="960" name="top"/>
  <outline>
    <contour>
      <point x="812" y="-450" type="curve" smooth="yes"/>
      <point x="867" y="-450"/>
      <point x="924" y="-435"/>
      <point x="972" y="-410" type="curve"/>
      <point x="972" y="-293" type="line"/>
      <point x="935" y="-321"/>
      <point x="888" y="-340"/>
      <point x="838" y="-340" type="curve" smooth="yes"/>
      <point x="756" y="-340"/>
      <point x="730" y="-291"/>
      <point x="732" y="-229" type="curve" smooth="yes"/>
      <point x="736" y="-105"/>
      <point x="832" y="-38"/>
      <point x="972" y="0" type="curve"/>
      <point x="937.0" y="59.5" type="line"/>
      <point x="767.0" y="18.5"/>
      <point x="616.0" y="-89.5"/>
      <point x="612" y="-255" type="curve" smooth="yes"/>
      <point x="610" y="-362"/>
      <point x="680" y="-450"/>
    </contour>
    <component base="u"/>
  </outline>
</glyph>
<glyph name="Schwa" format="2">
  <advance width="1599"/>
  <unicode hex="018F"/>
  <outline>
    <contour>
      <point x="777" y="-30" type="curve" smooth="yes"/>
      <point x="1195" y="-30"/>
      <point x="1487" y="288"/>
      <point x="1487" y="720" type="curve" smooth="yes"/>
      <point x="1487" y="1142"/>
      <point x="1199" y="1430"/>
      <point x="779" y="1430" type="curve" smooth="yes"/>
      <point x="582" y="1430"/>
      <point x="403" y="1369"/>
      <point x="269" y="1275" type="curve"/>
      <point x="269" y="1150" type="line"/>
      <point x="391" y="1258"/>
      <point x="575" y="1318"/>
      <point x="779" y="1318" type="curve" smooth="yes"/>
      <point x="1137" y="1318"/>
      <point x="1367" y="1084"/>
      <point x="1367" y="720" type="curve" smooth="yes"/>
      <point x="1367" y="340"/>
      <point x="1137" y="82"/>
      <point x="777" y="82" type="curve" smooth="yes"/>
      <point x="465" y="82"/>
      <point x="243" y="310"/>
      <point x="241" y="640" type="curve"/>
      <point x="193" y="602" type="line"/>
      <point x="1407" y="602" type="line"/>
      <point x="1407" y="710" type="line"/>
      <point x="113" y="710" type="line"/>
      <point x="93" y="284"/>
      <point x="373" y="-30"/>
    </contour>
  </outline>
</glyph>
<glyph name="florin" format="2">
  <advance width="1296"/>
  <unicode hex="0192"/>
  <outline>
    <contour>
      <point x="186" y="-452" type="curve" smooth="yes"/>
      <point x="360" y="-452"/>
      <point x="464" y="-348"/>
      <point x="512" y="-134" type="curve" smooth="yes"/>
      <point x="790" y="1112" type="line" smooth="yes"/>
      <point x="826" y="1270"/>
      <point x="880" y="1326"/>
      <point x="1002" y="1326" type="curve" smooth="yes"/>
      <point x="1078" y="1326"/>
      <point x="1162" y="1290"/>
      <point x="1192" y="1254" type="curve"/>
      <point x="1192" y="1372" type="line"/>
      <point x="1146" y="1406"/>
      <point x="1084" y="1430"/>
      <point x="1002" y="1430" type="curve" smooth="yes"/>
      <point x="828" y="1430"/>
      <point x="724" y="1326"/>
      <point x="676" y="1112" type="curve" smooth="yes"/>
      <point x="398" y="-134" type="line" smooth="yes"/>
      <point x="362" y="-292"/>
      <point x="308" y="-348"/>
      <point x="186" y="-348" type="curve" smooth="yes"/>
      <point x="110" y="-348"/>
      <point x="26" y="-312"/>
      <point x="-4" y="-276" type="curve"/>
      <point x="-4" y="-394" type="line"/>
      <point x="42" y="-428"/>
      <point x="104" y="-452"/>
    </contour>
    <contour>
      <point x="178" y="638" type="line"/>
      <point x="1114" y="638" type="line"/>
      <point x="1114" y="738" type="line"/>
      <point x="178" y="738" type="line"/>
    </contour>
  </outline>
</glyph>
<glyph name="oogonek" format="2">
  <advance width="1172"/>
  <unicode hex="01EB"/>
  <anchor x="586" y="960" name="top"/>
  <outline>
    <contour>
      <point x="642" y="-450" type="curve" smooth="yes"/>
      <point x="697" y="-450"/>
      <point x="754" y="-435"/>
      <point x="802" y="-410" type="curve"/>
      <point x="802" y="-293" type="line"/>
      <point x="765" y="-321"/>
      <point x="718" y="-340"/>
      <point x="668" y="-340" type="curve" smooth="yes"/>
      <point x="586" y="-340"/>
      <point x="560" y="-291"/>
      <point x="562" y="-229" type="curve" smooth="yes"/>
      <point x="566" y="-115"/>
      <point x="638" y="-45"/>
      <point x="750" y="-6" type="curve" smooth="yes"/>
      <point x="954" y="65"/>
      <point x="1092" y="258"/>
      <point x="1092" y="480" type="curve" smooth="yes"/>
      <point x="1092" y="758"/>
      <point x="876" y="990"/>
      <point x="586" y="990" type="curve" smooth="yes"/>
      <point x="296" y="990"/>
      <point x="80" y="758"/>
      <point x="80" y="480" type="curve" smooth="yes"/>
      <point x="80" y="210"/>
      <point x="283" y="-16"/>
      <point x="560" y="-29" type="curve"/>
      <point x="491" y="-86"/>
      <point x="444" y="-161"/>
      <point x="442" y="-255" type="curve" smooth="yes"/>
      <point x="440" y="-362"/>
      <point x="510" y="-450"/>
    </contour>
    <contour>
      <point x="586" y="78" type="curve" smooth="yes"/>
      <point x="360" y="78"/>
      <point x="200" y="234"/>
      <point x="200" y="480" type="curve" smooth="yes"/>
      <point x="200" y="726"/>
      <point x="360" y="882"/>
      <point x="586" y="882" type="curve" smooth="yes"/>
      <point x="812" y="882"/>
      <point x="972" y="726"/>
      <point x="972" y="480" type="curve" smooth="yes"/>
      <point x="972" y="234"/>
      <point x="812" y="78"/>
    </contour>
  </outline>
</glyph>
<glyph name="jdotless" format="2">
  <advance width="452"/>
  <unicode hex="0237"/>
  <anchor x="226" y="960" name="top"/>
  <outline>
    <contour>
      <point x="54" y="-450" type="curve" smooth="yes"/>
      <point x="196" y="-450"/>
      <point x="282" y="-356"/>
      <point x="282" y="-194" type="curve" smooth="yes"/>
      <point x="282" y="1000" type="line"/>
      <point x="170" y="858" type="line"/>
      <point x="170" y="-174" type="line" smooth="yes"/>
      <point x="170" y="-284"/>
      <point x="138" y="-342"/>
      <point x="38" y="-342" type="curve" smooth="yes"/>
      <point x="-16" y="-342"/>
      <point x="-44" y="-330"/>
      <point x="-76" y="-314" type="curve"/>
      <point x="-76" y="-426" type="line"/>
      <point x="-40" y="-440"/>
      <point x="4" y="-450"/>
    </contour>
  </outline>
</glyph>
<glyph name="gravecomb" format="2">
  <unicode hex="0300"/>
  <anchor x="236" y="960" name="_top"/>
  <anchor x="267" y="960" name="_top_right"/>
  <outline>
    <contour>
      <point x="204" y="1170" type="line"/>
      <point x="316" y="1170" type="line"/>
      <point x="136" y="1504" type="line"/>
      <point x="10" y="1504" type="line"/>
    </contour>
  </outline>
</glyph>
<glyph name="acutecomb" format="2">
  <unicode hex="0301"/>
  <anchor x="74" y="960" name="_top"/>
  <outline>
    <contour>
      <point x="10" y="1170" type="line"/>
      <point x="118" y="1170" type="line"/>
      <point x="312" y="1504" type="line"/>
      <point x="192" y="1504" type="line"/>
    </contour>
  </outline>
</glyph>
<glyph name="circumflexcomb" format="2">
  <unicode hex="0302"/>
  <anchor x="324" y="960" name="_top"/>
  <anchor x="324" y="1444" name="top"/>
  <anchor x="662" y="1224" name="top_right"/>
  <outline>
    <contour>
      <point x="10" y="1170" type="line"/>
      <point x="132" y="1170" type="line"/>
      <point x="330" y="1426" type="line"/>
      <point x="518" y="1170" type="line"/>
      <point x="638" y="1170" type="line"/>
      <point x="394" y="1504" type="line"/>
      <point x="270" y="1504" type="line"/>
    </contour>
  </outline>
</glyph>
<glyph name="tildecomb" format="2">
  <unicode hex="0303"/>
  <anchor x="331" y="960" name="_top"/>
  <anchor x="331" y="1344" name="top"/>
  <outline>
    <contour>
      <point x="10" y="1246" type="line"/>
      <point x="49" y="1302"/>
      <point x="101" y="1330"/>
      <point x="174" y="1330" type="curve" smooth="yes"/>
      <point x="259" y="1330"/>
      <point x="370" y="1246"/>
      <point x="478" y="1246" type="curve" smooth="yes"/>
      <point x="551" y="1246"/>
      <point x="608" y="1275"/>
      <point x="652" y="1325" type="curve"/>
      <point x="652" y="1430" type="line"/>
      <point x="613" y="1374"/>
      <point x="561" y="1346"/>
      <point x="488" y="1346" type="curve" smooth="yes"/>
      <point x="403" y="1346"/>
      <point x="292" y="1430"/>
      <point x="184" y="1430" type="curve" smooth="yes"/>
      <point x="111" y="1430"/>
      <point x="53" y="1401"/>
      <point x="10" y="1351" type="curve"/>
    </contour>
  </outline>
</glyph>
<glyph name="brevecomb" format="2">
  <unicode hex="0306"/>
  <anchor x="336" y="960" name="_top"/>
  <anchor x="336" y="1404" name="top"/>
  <outline>
    <contour>
      <point x="336" y="1160" type="curve" smooth="yes"/>
      <point x="526" y="1160"/>
      <point x="666" y="1308"/>
      <point x="660" y="1504" type="curve"/>
      <point x="556" y="1504" type="line"/>
      <point x="564" y="1356"/>
      <point x="476" y="1256"/>
      <point x="336" y="1256" type="curve" smooth="yes"/>
      <point x="196" y="1256"/>
      <point x="106" y="1356"/>
      <point x="112" y="1504" type="curve"/>
      <point x="10" y="1504" type="line"/>
      <point x="2" y="1306"/>
      <point x="140" y="1160"/>
    </contour>
  </outline>
</glyph>
<glyph name="dotaccentcomb" format="2">
  <unicode hex="0307"/>
  <anchor x="104" y="960" name="_top"/>
  <anchor x="104" y="1284" name="top"/>
  <outline>
    <contour>
      <point x="104" y="1162" type="curve" smooth="yes"/>
      <point x="156" y="1162"/>
      <point x="198" y="1204"/>
      <point x="198" y="1256" type="curve" smooth="yes"/>
      <point x="198" y="1308"/>
      <point x="156" y="1350"/>
      <point x="104" y="1350" type="curve" smooth="yes"/>
      <point x="52" y="1350"/>
      <point x="10" y="1308"/>
      <point x="10" y="1256" type="curve" smooth="yes"/>
      <point x="10" y="1204"/>
      <point x="52" y="1162"/>
    </contour>
  </outline>
</glyph>
<glyph name="ringcomb" format="2">
  <unicode hex="030A"/>
  <anchor x="258" y="960" name="_top"/>
  <anchor x="258" y="1464" name="top"/>
  <outline>
    <contour>
      <point x="258" y="1100" type="curve" smooth="yes"/>
      <point x="392" y="1100"/>
      <point x="504" y="1200"/>
      <point x="504" y="1332" type="curve" smooth="yes"/>
      <point x="504" y="1462"/>
      <point x="392" y="1566"/>
      <point x="258" y="1566" type="curve" smooth="yes"/>
      <point x="122" y="1566"/>
      <point x="10" y="1462"/>
      <point x="10" y="1332" type="curve" smooth="yes"/>
      <point x="10" y="1200"/>
      <point x="122" y="1100"/>
    </contour>
    <contour>
      <point x="258" y="1188" type="curve" smooth="yes"/>
      <point x="172" y="1188"/>
      <point x="114" y="1252"/>
      <point x="114" y="1332" type="curve" smooth="yes"/>
      <point x="114" y="1412"/>
      <point x="172" y="1476"/>
      <point x="258" y="1476" type="curve" smooth="yes"/>
      <point x="344" y="1476"/>
      <point x="400" y="1412"/>
      <point x="400" y="1332" type="curve" smooth="yes"/>
      <point x="400" y="1252"/>
      <point x="344" y="1188"/>
    </contour>
  </outline>
</glyph>
<glyph name="breveinvertedcomb" format="2">
  <unicode hex="0311"/>
  <anchor x="336" y="960" name="_top"/>
  <outline>
    <contour>
      <point x="10" y="1170" type="curve"/>
      <point x="112" y="1170" type="line"/>
      <point x="106" y="1318"/>
      <point x="196" y="1418"/>
      <point x="336" y="1418" type="curve" smooth="yes"/>
      <point x="476" y="1418"/>
      <point x="564" y="1318"/>
      <point x="556" y="1170" type="curve"/>
      <point x="660" y="1170" type="line"/>
      <point x="666" y="1366"/>
      <point x="526" y="1514"/>
      <point x="336" y="1514" type="curve" smooth="yes"/>
      <point x="140" y="1514"/>
      <point x="2" y="1368"/>
    </contour>
  </outline>
</glyph>
<glyph name="commaturnedabovecomb" format="2">
  <unicode hex="0312"/>
  <anchor x="120" y="960" name="_top"/>
  <outline>
    <contour>
      <point x="121" y="1244" type="curve" smooth="yes"/>
      <point x="178" y="1244"/>
      <point x="220" y="1282"/>
      <point x="220" y="1332" type="curve" smooth="yes"/>
      <point x="220" y="1390"/>
      <point x="162" y="1427"/>
      <point x="98" y="1414" type="curve"/>
      <point x="100" y="1475"/>
      <point x="165" y="1535"/>
      <point x="262" y="1534" type="curve"/>
      <point x="262" y="1606" type="line"/>
      <point x="78" y="1600"/>
      <point x="10" y="1477"/>
      <point x="10" y="1369" type="curve" smooth="yes"/>
      <point x="10" y="1294"/>
      <point x="55" y="1244"/>
    </contour>
  </outline>
</glyph>
<glyph name="dotbelowcomb" format="2">
  <unicode hex="0323"/>
  <anchor x="104" y="0" name="_bottom"/>
  <outline>
    <contour>
      <point x="104" y="-472" type="curve" smooth="yes"/>
      <point x="156" y="-472"/>
      <point x="198" y="-430"/>
      <point x="198" y="-378" type="curve" smooth="yes"/>
      <point x="198" y="-326"/>
      <point x="156" y="-284"/>
      <point x="104" y="-284" type="curve" smooth="yes"/>
      <point x="52" y="-284"/>
      <point x="10" y="-326"/>
      <point x="10" y="-378" type="curve" smooth="yes"/>
      <point x="10" y="-430"/>
      <point x="52" y="-472"/>
    </contour>
  </outline>
</glyph>
<glyph name="commaaccentcomb" format="2">
  <unicode hex="0326"/>
  <anchor x="152" y="0" name="_bottom"/>
  <outline>
    <contour>
      <point x="10" y="-646" type="line"/>
      <point x="194" y="-640"/>
      <point x="262" y="-517"/>
      <point x="262" y="-409" type="curve" smooth="yes"/>
      <point x="262" y="-334"/>
      <point x="217" y="-284"/>
      <point x="151" y="-284" type="curve" smooth="yes"/>
      <point x="94" y="-284"/>
      <point x="52" y="-322"/>
      <point x="52" y="-372" type="curve" smooth="yes"/>
      <point x="52" y="-430"/>
      <point x="110" y="-467"/>
      <point x="174" y="-454" type="curve"/>
      <point x="172" y="-515"/>
      <point x="107" y="-575"/>
      <point x="10" y="-574" type="curve"/>
    </contour>
  </outline>
</glyph>
<glyph name="cedillacomb" format="2">
  <unicode hex="0327"/>
  <anchor x="212" y="0" name="_bottom"/>
  <outline>
    <contour>
      <point x="196" y="-450" type="curve" smooth="yes"/>
      <point x="302" y="-450"/>
      <point x="430" y="-402"/>
      <point x="430" y="-266" type="curve" smooth="yes"/>
      <point x="430" y="-160"/>
      <point x="336" y="-102"/>
      <point x="210" y="-94" type="curve"/>
      <point x="250" y="40" type="line"/>
      <point x="168" y="40" type="line"/>
      <point x="114" y="-126" type="line"/>
      <point x="148" y="-186" type="line"/>
      <point x="234" y="-174"/>
      <point x="322" y="-200"/>
      <point x="322" y="-270" type="curve" smooth="yes"/>
      <point x="322" y="-336"/>
      <point x="262" y="-360"/>
      <point x="192" y="-360" type="curve" smooth="yes"/>
      <point x="112" y="-360"/>
      <point x="40" y="-336"/>
      <point x="10" y="-308" type="curve"/>
      <point x="10" y="-406" type="line"/>
      <point x="68" y="-434"/>
      <point x="118" y="-450"/>
    </contour>
  </outline>
</glyph>
<glyph name="brevebelowcomb" format="2">
  <unicode hex="032E"/>
  <anchor x="336" y="0" name="_bottom"/>
  <outline>
    <contour>
      <point x="336" y="-554" type="curve" smooth="yes"/>
      <point x="526" y="-554"/>
      <point x="666" y="-406"/>
      <point x="660" y="-210" type="curve"/>
      <point x="556" y="-210" type="line"/>
      <point x="564" y="-358"/>
      <point x="476" y="-458"/>
      <point x="336" y="-458" type="curve" smooth="yes"/>
      <point x="196" y="-458"/>
      <point x="106" y="-358"/>
      <point x="112" y="-210" type="curve"/>
      <point x="10" y="-210" type="line"/>
      <point x="2" y="-408"/>
      <point x="140" y="-554"/>
    </contour>
  </outline>
</glyph>
<glyph name="strokeshortcomb" format="2">
  <unicode hex="0335"/>
  <anchor x="320" y="520" name="_bar"/>
  <outline>
    <contour>
      <point x="10" y="468" type="line"/>
      <point x="630" y="468" type="line"/>
      <point x="630" y="572" type="line"/>
      <point x="10" y="572" type="line"/>
    </contour>
  </outline>
</glyph>
<glyph name="dieresistonos" format="2">
  <unicode hex="0385"/>
  <anchor x="-586" y="960" name="_top"/>
  <outline>
    <contour>
      <point x="-642" y="1216" type="line"/>
      <point x="-546" y="1216" type="line"/>
      <point x="-466" y="1504" type="line"/>
      <point x="-574" y="1504" type="line"/>
    </contour>
    <contour>
      <point x="-804" y="1162" type="curve" smooth="yes"/>
      <point x="-752" y="1162"/>
      <point x="-710" y="1204"/>
      <point x="-710" y="1256" type="curve" smooth="yes"/>
      <point x="-710" y="1308"/>
      <point x="-752" y="1350"/>
      <point x="-804" y="1350" type="curve" smooth="yes"/>
      <point x="-856" y="1350"/>
      <point x="-898" y="1308"/>
      <point x="-898" y="1256" type="curve" smooth="yes"/>
      <point x="-898" y="1204"/>
      <point x="-856" y="1162"/>
    </contour>
    <contour>
      <point x="-348" y="1162" type="curve" smooth="yes"/>
      <point x="-296" y="1162"/>
      <point x="-254" y="1204"/>
      <point x="-254" y="1256" type="curve" smooth="yes"/>
      <point x="-254" y="1308"/>
      <point x="-296" y="1350"/>
      <point x="-348" y="1350" type="curve" smooth="yes"/>
      <point x="-400" y="1350"/>
      <point x="-442" y="1308"/>
      <point x="-442" y="1256" type="curve" smooth="yes"/>
      <point x="-442" y="1204"/>
      <point x="-400" y="1162"/>
    </contour>
  </outline>
</glyph>
<glyph name="Delta" format="2">
  <advance width="1324"/>
  <unicode hex="0394"/>
  <outline>
    <contour>
      <point x="42" y="0" type="line"/>
      <point x="1271" y="0" type="line"/>
      <point x="1289" y="83" type="line"/>
      <point x="700" y="1400" type="line"/>
      <point x="600" y="1400" type="line"/>
      <point x="42" y="98" type="line"/>
    </contour>
    <contour>
      <point x="170" y="108" type="line"/>
      <point x="646" y="1228" type="line"/>
      <point x="1146" y="108" type="line"/>
    </contour>
  </outline>
</glyph>
<glyph name="alpha" format="2">
  <advance width="1312"/>
  <unicode hex="03B1"/>
  <anchor x="666" y="960" name="top"/>
  <outline>
    <contour>
      <point x="554" y="-30" type="curve" smooth="yes"/>
      <point x="732" y="-30"/>
      <point x="846" y="44"/>
      <point x="914" y="178" type="curve"/>
      <point x="922" y="14"/>
      <point x="1044" y="-64"/>
      <point x="1222" y="-16" type="curve"/>
      <point x="1222" y="92" type="line"/>
      <point x="1032" y="46"/>
      <point x="962" y="142"/>
      <point x="1036" y="520" type="curve" smooth="yes"/>
      <point x="1122" y="960" type="line"/>
      <point x="1014" y="960" type="line"/>
      <point x="960" y="684" type="line"/>
      <point x="906" y="850"/>
      <point x="774" y="990"/>
      <point x="548" y="990" type="curve" smooth="yes"/>
      <point x="266" y="990"/>
      <point x="80" y="758"/>
      <point x="80" y="480" type="curve" smooth="yes"/>
      <point x="80" y="202"/>
      <point x="266" y="-30"/>
    </contour>
    <contour>
      <point x="556" y="78" type="curve" smooth="yes"/>
      <point x="336" y="78"/>
      <point x="200" y="234"/>
      <point x="200" y="480" type="curve" smooth="yes"/>
      <point x="200" y="726"/>
      <point x="336" y="882"/>
      <point x="548" y="882" type="curve" smooth="yes"/>
      <point x="842" y="882"/>
      <point x="892" y="574"/>
      <point x="916" y="468" type="curve"/>
      <point x="870" y="258"/>
      <point x="796" y="78"/>
    </contour>
  </outline>
</glyph>
<glyph name="iota" format="2">
  <advance width="566"/>
  <unicode hex="03B9"/>
  <anchor x="216" y="960" name="top"/>
  <outline>
    <contour>
      <point x="368" y="-28" type="curve" smooth="yes"/>
      <point x="400" y="-28"/>
      <point x="462" y="-22"/>
      <point x="496" y="-12" type="curve"/>
      <point x="496" y="100" type="line"/>
      <point x="444" y="84"/>
      <point x="410" y="80"/>
      <point x="384" y="80" type="curve" smooth="yes"/>
      <point x="302" y="80"/>
      <point x="272" y="124"/>
      <point x="272" y="256" type="curve" smooth="yes"/>
      <point x="272" y="1000" type="line"/>
      <point x="160" y="860" type="line"/>
      <point x="160" y="176" type="line" smooth="yes"/>
      <point x="160" y="36"/>
      <point x="256" y="-28"/>
    </contour>
  </outline>
</glyph>
<glyph name="kappa" format="2">
  <advance width="1056"/>
  <unicode hex="03BA"/>
  <outline>
    <contour>
      <point x="170" y="0" type="line"/>
      <point x="282" y="0" type="line"/>
      <point x="282" y="340" type="line"/>
      <point x="470" y="526" type="line"/>
      <point x="826" y="0" type="line"/>
      <point x="966" y="0" type="line"/>
      <point x="552" y="598" type="line"/>
      <point x="618" y="664" type="line" smooth="yes"/>
      <point x="748" y="794"/>
      <point x="814" y="882"/>
      <point x="934" y="866" type="curve"/>
      <point x="934" y="970" type="line"/>
      <point x="782" y="992"/>
      <point x="696" y="882"/>
      <point x="536" y="726" type="curve" smooth="yes"/>
      <point x="282" y="478" type="line"/>
      <point x="282" y="1000" type="line"/>
      <point x="170" y="860" type="line"/>
    </contour>
  </outline>
</glyph>
<glyph name="lambda" format="2">
  <advance width="1034"/>
  <unicode hex="03BB"/>
  <outline>
    <contour>
      <point x="42" y="0" type="line"/>
      <point x="164" y="0" type="line"/>
      <point x="542" y="846" type="line"/>
      <point x="866" y="0" type="line"/>
      <point x="992" y="0" type="line"/>
      <point x="498" y="1292" type="line" smooth="yes"/>
      <point x="452" y="1412"/>
      <point x="378" y="1470"/>
      <point x="260" y="1470" type="curve" smooth="yes"/>
      <point x="228" y="1470"/>
      <point x="188" y="1466"/>
      <point x="132" y="1450" type="curve"/>
      <point x="132" y="1346" type="line"/>
      <point x="176" y="1358"/>
      <point x="218" y="1362"/>
      <point x="240" y="1362" type="curve" smooth="yes"/>
      <point x="328" y="1362"/>
      <point x="376" y="1300"/>
      <point x="406" y="1214" type="curve" smooth="yes"/>
      <point x="486" y="984" type="line"/>
    </contour>
  </outline>
</glyph>
<glyph name="nu" format="2">
  <advance width="1005"/>
  <unicode hex="03BD"/>
  <outline>
    <contour>
      <point x="400" y="0" type="line"/>
      <point x="516" y="0" type="line"/>
      <point x="708" y="244"/>
      <point x="856" y="562"/>
      <point x="928" y="960" type="curve"/>
      <point x="804" y="960" type="line"/>
      <point x="744" y="578"/>
      <point x="602" y="292"/>
      <point x="456" y="94" type="curve"/>
      <point x="486" y="94" type="line"/>
      <point x="174" y="960" type="line"/>
      <point x="42" y="960" type="line"/>
    </contour>
  </outline>
</glyph>
<glyph name="sigmafinal" format="2">
  <advance width="910"/>
  <unicode hex="03C2"/>
  <outline>
    <contour>
      <point x="746" y="-420" type="line"/>
      <point x="800" y="-309"/>
      <point x="823" y="-228"/>
      <point x="823" y="-156" type="curve" smooth="yes"/>
      <point x="823" y="222"/>
      <point x="200" y="103"/>
      <point x="200" y="512" type="curve" smooth="yes"/>
      <point x="200" y="742"/>
      <point x="348" y="882"/>
      <point x="582" y="882" type="curve" smooth="yes"/>
      <point x="690" y="882"/>
      <point x="788" y="856"/>
      <point x="856" y="808" type="curve"/>
      <point x="856" y="929" type="line"/>
      <point x="777" y="971"/>
      <point x="691" y="990"/>
      <point x="590" y="990" type="curve" smooth="yes"/>
      <point x="294" y="990"/>
      <point x="80" y="787"/>
      <point x="80" y="510" type="curve" smooth="yes"/>
      <point x="80" y="22"/>
      <point x="711" y="94"/>
      <point x="711" y="-178" type="curve" smooth="yes"/>
      <point x="711" y="-232"/>
      <point x="696" y="-298"/>
      <point x="628" y="-420" type="curve"/>
    </contour>
  </outline>
</glyph>
<glyph name="phi" format="2">
  <advance width="1325"/>
  <unicode hex="03C6"/>
  <outline>
    <contour>
      <point x="577" y="-420" type="line"/>
      <point x="689" y="-420" type="line"/>
      <point x="689" y="600" type="line" smooth="yes"/>
      <point x="689" y="794"/>
      <point x="753" y="882"/>
      <point x="894" y="882" type="curve" smooth="yes"/>
      <point x="1037" y="882"/>
      <point x="1129" y="764"/>
      <point x="1129" y="579" type="curve" smooth="yes"/>
      <point x="1129" y="270"/>
      <point x="957" y="91"/>
      <point x="660" y="91" type="curve" smooth="yes"/>
      <point x="369" y="91"/>
      <point x="200" y="246"/>
      <point x="200" y="513" type="curve" smooth="yes"/>
      <point x="200" y="690"/>
      <point x="260" y="842"/>
      <point x="375" y="960" type="curve"/>
      <point x="241" y="960" type="line"/>
      <point x="136" y="836"/>
      <point x="80" y="682"/>
      <point x="80" y="513" type="curve" smooth="yes"/>
      <point x="80" y="182"/>
      <point x="302" y="-16"/>
      <point x="656" y="-16" type="curve" smooth="yes"/>
      <point x="1020" y="-16"/>
      <point x="1245" y="223"/>
      <point x="1245" y="592" type="curve" smooth="yes"/>
      <point x="1245" y="834"/>
      <point x="1107" y="990"/>
      <point x="894" y="990" type="curve" smooth="yes"/>
      <point x="696" y="990"/>
      <point x="577" y="846"/>
      <point x="577" y="606" type="curve" smooth="yes"/>
    </contour>
  </outline>
</glyph>
<glyph name="KaiSymbol" format="2">
  <advance width="1314"/>
  <unicode hex="03CF"/>
  <outline>
    <contour>
      <point x="774" y="-420" type="line"/>
      <point x="914" y="-420" type="line"/>
      <point x="1224" y="0" type="line"/>
      <point x="630" y="776" type="line"/>
      <point x="1136" y="1400" type="line"/>
      <point x="998" y="1400" type="line"/>
      <point x="316" y="564" type="line"/>
      <point x="316" y="1400" type="line"/>
      <point x="200" y="1400" type="line"/>
      <point x="200" y="0" type="line"/>
      <point x="316" y="0" type="line"/>
      <point x="316" y="394" type="line"/>
      <point x="554" y="684" type="line"/>
      <point x="1080" y="-4" type="line"/>
    </contour>
  </outline>
</glyph>
<glyph name="De-cy" format="2">
  <advance width="1556"/>
  <unicode hex="0414"/>
  <outline>
    <contour>
      <point x="1160" y="0" type="line"/>
      <point x="1276" y="0" type="line"/>
      <point x="1276" y="1400" type="line"/>
      <point x="354" y="1400" type="line"/>
      <point x="354" y="300" type="line" smooth="yes"/>
      <point x="354" y="128"/>
      <point x="252" y="84"/>
      <point x="102" y="98" type="curve"/>
      <point x="102" y="20" type="line"/>
      <point x="304" y="0"/>
      <point x="470" y="62"/>
      <point x="470" y="280" type="curve" smooth="yes"/>
      <point x="470" y="1292" type="line"/>
      <point x="1160" y="1292" type="line"/>
    </contour>
    <contour>
      <point x="102" y="-428" type="line"/>
      <point x="210" y="-292" type="line"/>
      <point x="210" y="0" type="line"/>
      <point x="1388" y="0" type="line"/>
      <point x="1388" y="-428" type="line"/>
      <point x="1496" y="-292" type="line"/>
      <point x="1496" y="108" type="line"/>
      <point x="284" y="108" type="line"/>
      <point x="230" y="64" type="line"/>
      <point x="102" y="98" type="line"/>
    </contour>
  </outline>
</glyph>
<glyph name="Ka-cy" format="2">
  <advance width="1314"/>
  <unicode hex="041A"/>
  <anchor x="1132" y="0" name="descender"/>
  <anchor x="638" y="1400" name="top"/>
  <outline>
    <contour>
      <point x="1072" y="0" type="line"/>
      <point x="1224" y="0" type="line"/>
      <point x="630" y="756" type="line"/>
      <point x="1136" y="1400" type="line"/>
      <point x="998" y="1400" type="line"/>
      <point x="488" y="754" type="line"/>
    </contour>
    <contour>
      <point x="200" y="0" type="line"/>
      <point x="316" y="0" type="line"/>
      <point x="316" y="698" type="line"/>
      <point x="570" y="698" type="line"/>
      <point x="570" y="806" type="line"/>
      <point x="316" y="806" type="line"/>
      <point x="316" y="1400" type="line"/>
      <point x="200" y="1400" type="line"/>
    </contour>
  </outline>
</glyph>
<glyph name="El-cy" format="2">
  <advance width="1476"/>
  <unicode hex="041B"/>
  <outline>
    <contour>
      <point x="102" y="-20" type="line"/>
      <point x="304" y="-44"/>
      <point x="470" y="28"/>
      <point x="470" y="280" type="curve" smooth="yes"/>
      <point x="470" y="1292" type="line"/>
      <point x="1160" y="1292" type="line"/>
      <point x="1160" y="0" type="line"/>
      <point x="1276" y="0" type="line"/>
      <point x="1276" y="1400" type="line"/>
      <point x="354" y="1400" type="line"/>
      <point x="354" y="300" type="line" smooth="yes"/>
      <point x="354" y="120"/>
      <point x="252" y="74"/>
      <point x="102" y="88" type="curve"/>
    </contour>
  </outline>
</glyph>
<glyph name="Pe-cy" format="2">
  <advance width="1436"/>
  <unicode hex="041F"/>
  <anchor x="718" y="1400" name="top"/>
  <outline>
    <contour>
      <point x="200" y="0" type="line"/>
      <point x="316" y="0" type="line"/>
      <point x="316" y="1292" type="line"/>
      <point x="1120" y="1292" type="line"/>
      <point x="1120" y="0" type="line"/>
      <point x="1236" y="0" type="line"/>
      <point x="1236" y="1400" type="line"/>
      <point x="200" y="1400" type="line"/>
    </contour>
  </outline>
</glyph>
<glyph name="Hardsign-cy" format="2">
  <advance width="1504"/>
  <unicode hex="042A"/>
  <anchor x="542" y="1400" name="top"/>
  <outline>
    <contour>
      <point x="484" y="1292" type="line"/>
      <point x="600" y="1400" type="line"/>
      <point x="82" y="1400" type="line"/>
      <point x="58" y="1292" type="line"/>
    </contour>
    <contour>
      <point x="484" y="0" type="line"/>
      <point x="934" y="0" type="line" smooth="yes"/>
      <point x="1242" y="0"/>
      <point x="1414" y="138"/>
      <point x="1414" y="396" type="curve" smooth="yes"/>
      <point x="1414" y="646"/>
      <point x="1220" y="796"/>
      <point x="936" y="796" type="curve" smooth="yes"/>
      <point x="600" y="796" type="line"/>
      <point x="600" y="1400" type="line"/>
      <point x="484" y="1400" type="line"/>
    </contour>
    <contour>
      <point x="600" y="108" type="line"/>
      <point x="600" y="688" type="line"/>
      <point x="950" y="688" type="line" smooth="yes"/>
      <point x="1166" y="688"/>
      <point x="1298" y="572"/>
      <point x="1298" y="392" type="curve" smooth="yes"/>
      <point x="1298" y="206"/>
      <point x="1170" y="108"/>
      <point x="948" y="108" type="curve" smooth="yes"/>
    </contour>
  </outline>
</glyph>
<glyph name="Ereversed-cy" format="2">
  <advance width="1380"/>
  <unicode hex="042D"/>
  <anchor x="594" y="0" name="bottom"/>
  <anchor x="594" y="1400" name="top"/>
  <outline>
    <contour>
      <point x="562" y="-30" type="curve" smooth="yes"/>
      <point x="990" y="-30"/>
      <point x="1268" y="258"/>
      <point x="1268" y="718" type="curve" smooth="yes"/>
      <point x="1268" y="1144"/>
      <point x="984" y="1430"/>
      <point x="586" y="1430" type="curve" smooth="yes"/>
      <point x="408" y="1430"/>
      <point x="258" y="1386"/>
      <point x="150" y="1312" type="curve"/>
      <point x="150" y="1190" type="line"/>
      <point x="262" y="1278"/>
      <point x="406" y="1320"/>
      <point x="574" y="1320" type="curve" smooth="yes"/>
      <point x="922" y="1320"/>
      <point x="1148" y="1102"/>
      <point x="1148" y="716" type="curve" smooth="yes"/>
      <point x="1148" y="300"/>
      <point x="916" y="82"/>
      <point x="562" y="82" type="curve" smooth="yes"/>
      <point x="382" y="82"/>
      <point x="224" y="124"/>
      <point x="88" y="230" type="curve"/>
      <point x="88" y="110" type="line"/>
      <point x="224" y="12"/>
      <point x="382" y="-30"/>
    </contour>
    <contour>
      <point x="284" y="688" type="line"/>
      <point x="1170" y="688" type="line"/>
      <point x="1170" y="796" type="line"/>
      <point x="308" y="796" type="line"/>
    </contour>
  </outline>
</glyph>
<glyph name="ge-cy" format="2">
  <advance width="830"/>
  <unicode hex="0433"/>
  <anchor x="342" y="486" name="bar"/>
  <anchor x="282" y="0" name="descender"/>
  <anchor x="470" y="960" name="top"/>
  <outline>
    <contour>
      <point x="170" y="0" type="line"/>
      <point x="282" y="0" type="line"/>
      <point x="282" y="856" type="line"/>
      <point x="772" y="856" type="line"/>
      <point x="772" y="960" type="line"/>
      <point x="170" y="960" type="line"/>
    </contour>
  </outline>
</glyph>
<glyph name="ze-cy" format="2">
  <advance width="990"/>
  <unicode hex="0437"/>
  <anchor x="474" y="0" name="bottom"/>
  <anchor x="464" y="960" name="top"/>
  <outline>
    <contour>
      <point x="464" y="-20" type="curve" smooth="yes"/>
      <point x="716" y="-20"/>
      <point x="890" y="84"/>
      <point x="890" y="278" type="curve" smooth="yes"/>
      <point x="890" y="402"/>
      <point x="804" y="492"/>
      <point x="646" y="522" type="curve"/>
      <point x="780" y="556"/>
      <point x="854" y="628"/>
      <point x="854" y="738" type="curve" smooth="yes"/>
      <point x="854" y="900"/>
      <point x="704" y="992"/>
      <point x="476" y="992" type="curve" smooth="yes"/>
      <point x="350" y="992"/>
      <point x="224" y="954"/>
      <point x="138" y="894" type="curve"/>
      <point x="138" y="784" type="line"/>
      <point x="226" y="854"/>
      <point x="344" y="888"/>
      <point x="470" y="888" type="curve" smooth="yes"/>
      <point x="632" y="888"/>
      <point x="742" y="832"/>
      <point x="742" y="728" type="curve" smooth="yes"/>
      <point x="742" y="606"/>
      <point x="614" y="562"/>
      <point x="414" y="562" type="curve" smooth="yes"/>
      <point x="250" y="562" type="line"/>
      <point x="226" y="458" type="line"/>
      <point x="416" y="458" type="line" smooth="yes"/>
      <point x="648" y="458"/>
      <point x="778" y="402"/>
      <point x="778" y="280" type="curve" smooth="yes"/>
      <point x="778" y="138"/>
      <point x="654" y="84"/>
      <point x="462" y="84" type="curve" smooth="yes"/>
      <point x="336" y="84"/>
      <point x="208" y="110"/>
      <point x="110" y="182" type="curve"/>
      <point x="110" y="58" type="line"/>
      <point x="208" y="2"/>
      <point x="328" y="-20"/>
    </contour>
  </outline>
</glyph>
<glyph name="ii-cy" format="2">
  <advance width="1178"/>
  <unicode hex="0438"/>
  <anchor x="588" y="0" name="bottom"/>
  <anchor x="588" y="960" name="top"/>
  <outline>
    <contour>
      <point x="170" y="0" type="line"/>
      <point x="254" y="0" type="line"/>
      <point x="896" y="784" type="line"/>
      <point x="896" y="0" type="line"/>
      <point x="1008" y="0" type="line"/>
      <point x="1008" y="960" type="line"/>
      <point x="918" y="960" type="line"/>
      <point x="282" y="184" type="line"/>
      <point x="282" y="1000" type="line"/>
      <point x="170" y="858" type="line"/>
    </contour>
  </outline>
</glyph>
<glyph name="ka-cy" format="2">
  <advance width="1026"/>
  <unicode hex="043A"/>
  <anchor x="886" y="0" name="descender"/>
  <anchor x="508" y="960" name="top"/>
  <outline>
    <contour>
      <point x="826" y="0" type="line"/>
      <point x="966" y="0" type="line"/>
      <point x="612" y="522" type="line"/>
      <point x="894" y="960" type="line"/>
      <point x="770" y="960" type="line"/>
      <point x="488" y="518" type="line"/>
    </contour>
    <contour>
      <point x="170" y="0" type="line"/>
      <point x="282" y="0" type="line"/>
      <point x="280" y="460" type="line"/>
      <point x="564" y="460" type="line"/>
      <point x="564" y="564" type="line"/>
      <point x="280" y="564" type="line"/>
      <point x="282" y="1000" type="line"/>
      <point x="170" y="858" type="line"/>
    </contour>
  </outline>
</glyph>
<glyph name="che-cy" format="2">
  <advance width="1036"/>
  <unicode hex="0447"/>
  <anchor x="474" y="448" name="center"/>
  <anchor x="866" y="0" name="descender"/>
  <anchor x="754" y="0" name="descender_alt"/>
  <anchor x="472" y="960" name="top"/>
  <outline>
    <contour>
      <point x="754" y="0" type="line"/>
      <point x="866" y="0" type="line"/>
      <point x="866" y="1000" type="line"/>
      <point x="754" y="858" type="line"/>
      <point x="754" y="518" type="line"/>
      <point x="672" y="500"/>
      <point x="588" y="488"/>
      <point x="472" y="488" type="curve" smooth="yes"/>
      <point x="268" y="488"/>
      <point x="192" y="574"/>
      <point x="192" y="740" type="curve" smooth="yes"/>
      <point x="192" y="1000" type="line"/>
      <point x="80" y="858" type="line"/>
      <point x="80" y="722" type="line" smooth="yes"/>
      <point x="80" y="504"/>
      <point x="190" y="380"/>
      <point x="466" y="380" type="curve" smooth="yes"/>
      <point x="570" y="380"/>
      <point x="654" y="392"/>
      <point x="754" y="418" type="curve"/>
    </contour>
  </outline>
</glyph>
<glyph name="ereversed-cy" format="2">
  <advance width="972"/>
  <unicode hex="044D"/>
  <anchor x="412" y="0" name="bottom"/>
  <anchor x="412" y="960" name="top"/>
  <outline>
    <contour>
      <point x="392" y="-30" type="curve" smooth="yes"/>
      <point x="690" y="-30"/>
      <point x="892" y="172"/>
      <point x="892" y="492" type="curve" smooth="yes"/>
      <point x="892" y="790"/>
      <point x="694" y="990"/>
      <point x="408" y="990" type="curve" smooth="yes"/>
      <point x="303" y="990"/>
      <point x="187" y="958"/>
      <point x="106" y="902" type="curve"/>
      <point x="106" y="784" type="line"/>
      <point x="181" y="842"/>
      <point x="290" y="882"/>
      <point x="400" y="882" type="curve" smooth="yes"/>
      <point x="630" y="882"/>
      <point x="774" y="740"/>
      <point x="774" y="490" type="curve" smooth="yes"/>
      <point x="774" y="222"/>
      <point x="620" y="78"/>
      <point x="390" y="78" type="curve" smooth="yes"/>
      <point x="277" y="78"/>
      <point x="159" y="114"/>
      <point x="80" y="182" type="curve"/>
      <point x="80" y="56" type="line"/>
      <point x="166" y="-6"/>
      <point x="283" y="-30"/>
    </contour>
    <contour>
      <point x="172" y="440" type="line"/>
      <point x="804" y="440" type="line"/>
      <point x="804" y="544" type="line"/>
      <point x="196" y="544" type="line"/>
    </contour>
  </outline>
</glyph>
<glyph name="e-cy" format="2">
  <advance width="968"/>
  <unicode hex="0454"/>
  <outline>
    <contour>
      <point x="586" y="-30" type="curve" smooth="yes"/>
      <point x="697" y="-30"/>
      <point x="796" y="-2"/>
      <point x="888" y="50" type="curve"/>
      <point x="888" y="174" type="line"/>
      <point x="830" y="120"/>
      <point x="716" y="78"/>
      <point x="592" y="78" type="curve" smooth="yes"/>
      <point x="352" y="78"/>
      <point x="200" y="230"/>
      <point x="200" y="482" type="curve" smooth="yes"/>
      <point x="200" y="734"/>
      <point x="354" y="882"/>
      <point x="594" y="882" type="curve" smooth="yes"/>
      <point x="708" y="882"/>
      <point x="809" y="854"/>
      <point x="874" y="808" type="curve"/>
      <point x="874" y="932" type="line"/>
      <point x="792" y="972"/>
      <point x="703" y="990"/>
      <point x="602" y="990" type="curve" smooth="yes"/>
      <point x="300" y="990"/>
      <point x="80" y="778"/>
      <point x="80" y="480" type="curve" smooth="yes"/>
      <point x="80" y="186"/>
      <point x="290" y="-30"/>
    </contour>
    <contour>
      <point x="168" y="440" type="line"/>
      <point x="802" y="440" type="line"/>
      <point x="802" y="544" type="line"/>
      <point x="168" y="544" type="line"/>
    </contour>
  </outline>
</glyph>
<glyph name="fita-cy" format="2">
  <advance width="1172"/>
  <unicode hex="0473"/>
  <outline>
    <contour>
      <point x="586" y="-30" type="curve" smooth="yes"/>
      <point x="876" y="-30"/>
      <point x="1092" y="202"/>
      <point x="1092" y="480" type="curve" smooth="yes"/>
      <point x="1092" y="758"/>
      <point x="876" y="990"/>
      <point x="586" y="990" type="curve" smooth="yes"/>
      <point x="296" y="990"/>
      <point x="80" y="758"/>
      <point x="80" y="480" type="curve" smooth="yes"/>
      <point x="80" y="202"/>
      <point x="296" y="-30"/>
    </contour>
    <contour>
      <point x="586" y="78" type="curve" smooth="yes"/>
      <point x="360" y="78"/>
      <point x="200" y="234"/>
      <point x="200" y="480" type="curve" smooth="yes"/>
      <point x="200" y="726"/>
      <point x="360" y="882"/>
      <point x="586" y="882" type="curve" smooth="yes"/>
      <point x="812" y="882"/>
      <point x="972" y="726"/>
      <point x="972" y="480" type="curve" smooth="yes"/>
      <point x="972" y="234"/>
      <point x="812" y="78"/>
    </contour>
    <contour>
      <point x="798" y="406" type="curve" smooth="yes"/>
      <point x="900" y="406"/>
      <point x="960" y="418"/>
      <point x="1022" y="460" type="curve"/>
      <point x="1022" y="544" type="line"/>
      <point x="960" y="518"/>
      <point x="900" y="510"/>
      <point x="838" y="510" type="curve" smooth="yes"/>
      <point x="670" y="510"/>
      <point x="522" y="578"/>
      <point x="376" y="578" type="curve" smooth="yes"/>
      <point x="274" y="578"/>
      <point x="214" y="566"/>
      <point x="152" y="524" type="curve"/>
      <point x="152" y="440" type="line"/>
      <point x="214" y="466"/>
      <point x="274" y="474"/>
      <point x="336" y="474" type="curve" smooth="yes"/>
      <point x="504" y="474"/>
      <point x="652" y="406"/>
    </contour>
  </outline>
</glyph>
<glyph name="Izhitsa-cy" format="2">
  <advance width="1316"/>
  <unicode hex="0474"/>
  <outline>
    <contour>
      <point x="590" y="0" type="line"/>
      <point x="690" y="0" type="line"/>
      <point x="1110" y="1100" type="line" smooth="yes"/>
      <point x="1162" y="1234"/>
      <point x="1204" y="1314"/>
      <point x="1350" y="1292" type="curve"/>
      <point x="1350" y="1400" type="line"/>
      <point x="1170" y="1440"/>
      <point x="1078" y="1356"/>
      <point x="984" y="1100" type="curve" smooth="yes"/>
      <point x="642" y="176" type="line"/>
      <point x="160" y="1400" type="line"/>
      <point x="30" y="1400" type="line"/>
    </contour>
  </outline>
</glyph>
<glyph name="Gheupturn-cy" format="2">
  <advance width="998"/>
  <unicode hex="0490"/>
  <anchor x="504" y="722" name="bar"/>
  <anchor x="316" y="0" name="descender"/>
  <anchor x="564" y="1400" name="top"/>
  <outline>
    <contour>
      <point x="820" y="1292" type="line"/>
      <point x="928" y="1292" type="line"/>
      <point x="928" y="1828" type="line"/>
      <point x="820" y="1692" type="line"/>
    </contour>
    <component base="Ge-cy"/>
  </outline>
</glyph>
<glyph name="gheupturn-cy" format="2">
  <advance width="830"/>
  <unicode hex="0491"/>
  <anchor x="342" y="486" name="bar"/>
  <anchor x="282" y="0" name="descender"/>
  <anchor x="470" y="960" name="top"/>
  <outline>
    <contour>
      <point x="668" y="856" type="line"/>
      <point x="772" y="856" type="line"/>
      <point x="772" y="1324" type="line"/>
      <point x="668" y="1196" type="line"/>
    </contour>
    <component base="ge-cy"/>
  </outline>
</glyph>
<glyph name="ghemiddlehook-cy" format="2">
  <advance width="1053"/>
  <unicode hex="0495"/>
  <anchor x="342" y="486" name="bar"/>
  <anchor x="282" y="0" name="descender"/>
  <anchor x="470" y="960" name="top"/>
  <outline>
    <contour>
      <point x="620" y="-192" type="line"/>
      <point x="834" y="-120"/>
      <point x="936" y="54"/>
      <point x="936" y="226" type="curve" smooth="yes"/>
      <point x="936" y="462"/>
      <point x="752" y="586"/>
      <point x="492" y="586" type="curve" smooth="yes"/>
      <point x="404" y="586"/>
      <point x="304" y="572"/>
      <point x="198" y="534" type="curve"/>
      <point x="196" y="436" type="line"/>
      <point x="292" y="470"/>
      <point x="382" y="486"/>
      <point x="484" y="486" type="curve" smooth="yes"/>
      <point x="680" y="486"/>
      <point x="824" y="408"/>
      <point x="824" y="222" type="curve" smooth="yes"/>
      <point x="824" y="90"/>
      <point x="742" y="-48"/>
      <point x="570" y="-110" type="curve"/>
    </contour>
    <component base="ge-cy"/>
  </outline>
</glyph>
<glyph name="quoteleft" format="2">
  <advance width="500"/>
  <unicode hex="2018"/>
  <outline>
    <contour>
      <point x="254" y="996" type="curve" smooth="yes"/>
      <point x="314" y="996"/>
      <point x="358" y="1038"/>
      <point x="358" y="1094" type="curve" smooth="yes"/>
      <point x="358" y="1158"/>
      <point x="297" y="1201"/>
      <point x="228" y="1185" type="curve"/>
      <point x="230" y="1259"/>
      <point x="300" y="1335"/>
      <point x="406" y="1332" type="curve"/>
      <point x="406" y="1410" type="line"/>
      <point x="214" y="1405"/>
      <point x="137" y="1264"/>
      <point x="137" y="1137" type="curve" smooth="yes"/>
      <point x="137" y="1053"/>
      <point x="183" y="996"/>
    </contour>
  </outline>
</glyph>
<glyph name="daggerdbl" format="2">
  <advance width="1208"/>
  <unicode hex="2021"/>
  <outline>
    <contour>
      <point x="554" y="-12" type="line"/>
      <point x="654" y="-12" type="line"/>
      <point x="654" y="404" type="line"/>
      <point x="1072" y="404" type="line"/>
      <point x="1072" y="502" type="line"/>
      <point x="654" y="502" type="line"/>
      <point x="654" y="1086" type="line"/>
      <point x="1072" y="1086" type="line"/>
      <point x="1072" y="1184" type="line"/>
      <point x="654" y="1184" type="line"/>
      <point x="654" y="1600" type="line"/>
      <point x="554" y="1600" type="line"/>
      <point x="554" y="1184" type="line"/>
      <point x="136" y="1184" type="line"/>
      <point x="136" y="1086" type="line"/>
      <point x="554" y="1086" type="line"/>
      <point x="554" y="502" type="line"/>
      <point x="136" y="502" type="line"/>
      <point x="136" y="404" type="line"/>
      <point x="554" y="404" type="line"/>
    </contour>
  </outline>
</glyph>
<glyph name="guilsinglright" format="2">
  <advance width="576"/>
  <unicode hex="203A"/>
  <outline>
    <contour>
      <point x="208" y="148" type="line"/>
      <point x="516" y="498" type="line"/>
      <point x="208" y="848" type="line"/>
      <point x="90" y="848" type="line"/>
      <point x="392" y="498" type="line"/>
      <point x="90" y="148" type="line"/>
    </contour>
  </outline>
</glyph>
<glyph name="fraction" format="2">
  <advance width="391"/>
  <unicode hex="2044"/>
  <outline>
    <contour>
      <point x="-144" y="0" type="line"/>
      <point x="636" y="1400" type="line"/>
      <point x="538" y="1400" type="line"/>
      <point x="-245" y="0" type="line"/>
    </contour>
  </outline>
</glyph>
<glyph name="commercialMinusSign" format="2">
  <advance width="1296"/>
  <unicode hex="2052"/>
  <outline>
    <contour>
      <point x="306" y="0" type="line"/>
      <point x="1086" y="1400" type="line"/>
      <point x="988" y="1400" type="line"/>
      <point x="205" y="0" type="line"/>
    </contour>
    <contour>
      <point x="1004" y="-20" type="curve" smooth="yes"/>
      <point x="1066" y="-20"/>
      <point x="1114" y="24"/>
      <point x="1114" y="84" type="curve" smooth="yes"/>
      <point x="1114" y="144"/>
      <point x="1066" y="188"/>
      <point x="1004" y="188" type="curve" smooth="yes"/>
      <point x="942" y="188"/>
      <point x="894" y="144"/>
      <point x="894" y="84" type="curve" smooth="yes"/>
      <point x="894" y="24"/>
      <point x="942" y="-20"/>
    </contour>
    <contour>
      <point x="290" y="1212" type="curve" smooth="yes"/>
      <point x="352" y="1212"/>
      <point x="400" y="1256"/>
      <point x="400" y="1316" type="curve" smooth="yes"/>
      <point x="400" y="1376"/>
      <point x="352" y="1420"/>
      <point x="290" y="1420" type="curve" smooth="yes"/>
      <point x="228" y="1420"/>
      <point x="180" y="1376"/>
      <point x="180" y="1316" type="curve" smooth="yes"/>
      <point x="180" y="1256"/>
      <point x="228" y="1212"/>
    </contour>
  </outline>
</glyph>
<glyph name="foursuperior" format="2">
  <advance width="844"/>
  <unicode hex="2074"/>
  <outline>
    <contour>
      <point x="528" y="722" type="line"/>
      <point x="624" y="722" type="line"/>
      <point x="624" y="918" type="line"/>
      <point x="778" y="918" type="line"/>
      <point x="778" y="1010" type="line"/>
      <point x="624" y="1010" type="line"/>
      <point x="624" y="1226" type="line"/>
      <point x="528" y="1226" type="line"/>
      <point x="528" y="1010" type="line"/>
      <point x="162" y="1010" type="line"/>
      <point x="520" y="1632" type="line"/>
      <point x="408" y="1632" type="line"/>
      <point x="48" y="1002" type="line"/>
      <point x="48" y="918" type="line"/>
      <point x="528" y="918" type="line"/>
    </contour>
  </outline>
</glyph>
<glyph name="franc" format="2">
  <advance width="1296"/>
  <unicode hex="20A3"/>
  <outline>
    <contour>
      <point x="140" y="258" type="line"/>
      <point x="692" y="258" type="line"/>
      <point x="692" y="358" type="line"/>
      <point x="140" y="358" type="line"/>
    </contour>
    <component base="_part.franc" xOffset="140"/>
  </outline>
</glyph>
<glyph name="tugrik" format="2">
  <advance width="1296"/>
  <unicode hex="20AE"/>
  <anchor x="648" y="722" name="bar"/>
  <anchor x="648" y="0" name="bottom"/>
  <anchor x="648" y="1400" name="top"/>
  <outline>
    <contour>
      <point x="236" y="584" type="line"/>
      <point x="648" y="804" type="line"/>
      <point x="648" y="794" type="line"/>
      <point x="1060" y="1014" type="line"/>
      <point x="1060" y="1112" type="line"/>
      <point x="648" y="892" type="line"/>
      <point x="648" y="902" type="line"/>
      <point x="236" y="682" type="line"/>
    </contour>
    <contour>
      <point x="236" y="286" type="line"/>
      <point x="648" y="506" type="line"/>
      <point x="648" y="496" type="line"/>
      <point x="1060" y="716" type="line"/>
      <point x="1060" y="814" type="line"/>
      <point x="648" y="594" type="line"/>
      <point x="648" y="604" type="line"/>
      <point x="236" y="384" type="line"/>
    </contour>
    <component base="T" xOffset="106"/>
  </outline>
</glyph>
<glyph name="peso" format="2">
  <advance width="1296"/>
  <unicode hex="20B1"/>
  <outline>
    <contour>
      <point x="262" y="0" type="line"/>
      <point x="376" y="0" type="line"/>
      <point x="376" y="486" type="line"/>
      <point x="632" y="486" type="line" smooth="yes"/>
      <point x="934" y="486"/>
      <point x="1104" y="644"/>
      <point x="1104" y="942" type="curve" smooth="yes"/>
      <point x="1104" y="1212"/>
      <point x="908" y="1400"/>
      <point x="634" y="1400" type="curve" smooth="yes"/>
      <point x="262" y="1400" type="line"/>
    </contour>
    <contour>
      <point x="376" y="590" type="line"/>
      <point x="376" y="1296" type="line"/>
      <point x="644" y="1296" type="line" smooth="yes"/>
      <point x="856" y="1296"/>
      <point x="990" y="1142"/>
      <point x="990" y="938" type="curve" smooth="yes"/>
      <point x="990" y="710"/>
      <point x="864" y="590"/>
      <point x="642" y="590" type="curve" smooth="yes"/>
    </contour>
    <contour>
      <point x="72" y="1046" type="line"/>
      <point x="1264" y="1046" type="line"/>
      <point x="1264" y="1146" type="line"/>
      <point x="72" y="1146" type="line"/>
    </contour>
    <contour>
      <point x="72" y="738" type="line"/>
      <point x="1264" y="738" type="line"/>
      <point x="1264" y="838" type="line"/>
      <point x="72" y="838" type="line"/>
    </contour>
  </outline>
</glyph>
<glyph name="liraTurkish" format="2">
  <advance width="1296"/>
  <unicode hex="20BA"/>
  <outline>
    <contour>
      <point x="544" y="-30" type="curve" smooth="yes"/>
      <point x="922" y="-30"/>
      <point x="1174" y="178"/>
      <point x="1154" y="558" type="curve"/>
      <point x="1052" y="558" type="line"/>
      <point x="1062" y="242"/>
      <point x="874" y="78"/>
      <point x="564" y="78" type="curve" smooth="yes"/>
      <point x="508" y="78"/>
      <point x="446" y="84"/>
      <point x="380" y="96" type="curve"/>
      <point x="416" y="40" type="line"/>
      <point x="416" y="1400" type="line"/>
      <point x="300" y="1400" type="line"/>
      <point x="300" y="-2" type="line"/>
      <point x="380" y="-22"/>
      <point x="456" y="-30"/>
    </contour>
    <contour>
      <point x="124" y="366" type="line"/>
      <point x="354" y="486" type="line"/>
      <point x="354" y="476" type="line"/>
      <point x="968" y="800" type="line"/>
      <point x="968" y="898" type="line"/>
      <point x="354" y="574" type="line"/>
      <point x="354" y="584" type="line"/>
      <point x="124" y="464" type="line"/>
    </contour>
    <contour>
      <point x="124" y="664" type="line"/>
      <point x="354" y="784" type="line"/>
      <point x="354" y="774" type="line"/>
      <point x="968" y="1098" type="line"/>
      <point x="968" y="1196" type="line"/>
      <point x="354" y="872" type="line"/>
      <point x="354" y="882" type="line"/>
      <point x="124" y="762" type="line"/>
    </contour>
  </outline>
</glyph>
<glyph name="northWestArrow" format="2">
  <advance width="1800"/>
  <unicode hex="2196"/>
  <outline>
    <contour>
      <point x="1484" y="8" type="line"/>
      <point x="1552" y="76" type="line"/>
      <point x="324" y="1304" type="line"/>
      <point x="954" y="1304" type="line"/>
      <point x="954" y="1400" type="line"/>
      <point x="160" y="1400" type="line"/>
      <point x="162" y="606" type="line"/>
      <point x="256" y="606" type="line"/>
      <point x="256" y="1236" type="line"/>
    </contour>
  </outline>
</glyph>
<glyph name="southEastArrow" format="2">
  <advance width="1800"/>
  <unicode hex="2198"/>
  <outline>
    <contour>
      <point x="846" y="0" type="line"/>
      <point x="1640" y="0" type="line"/>
      <point x="1638" y="794" type="line"/>
      <point x="1544" y="794" type="line"/>
      <point x="1544" y="164" type="line"/>
      <point x="316" y="1392" type="line"/>
      <point x="248" y="1324" type="line"/>
      <point x="1476" y="96" type="line"/>
      <point x="846" y="96" type="line"/>
    </contour>
  </outline>
</glyph>
<glyph name="divisionslash" format="2">
  <advance width="1296"/>
  <unicode hex="2215"/>
  <outline>
    <contour>
      <point x="309" y="0" type="line"/>
      <point x="1088" y="1400" type="line"/>
      <point x="990" y="1400" type="line"/>
      <point x="208" y="0" type="line"/>
    </contour>
  </outline>
</glyph>
<glyph name="notequal" format="2">
  <advance width="1296"/>
  <unicode hex="2260"/>
  <outline>
    <contour>
      <point x="455" y="179" type="line"/>
      <point x="951" y="1153" type="line"/>
      <point x="845" y="1153" type="line"/>
      <point x="347" y="179" type="line"/>
    </contour>
    <contour>
      <point x="180" y="450" type="line"/>
      <point x="1116" y="450" type="line"/>
      <point x="1116" y="546" type="line"/>
      <point x="180" y="546" type="line"/>
    </contour>
    <contour>
      <point x="180" y="774" type="line"/>
      <point x="1116" y="774" type="line"/>
      <point x="1116" y="870" type="line"/>
      <point x="180" y="870" type="line"/>
    </contour>
  </outline>
</glyph>
<glyph name="lozenge" format="2">
  <advance width="1296"/>
  <unicode hex="25CA"/>
  <outline>
    <contour>
      <point x="584" y="0" type="line"/>
      <point x="712" y="0" type="line"/>
      <point x="1176" y="700" type="line"/>
      <point x="712" y="1400" type="line"/>
      <point x="584" y="1400" type="line"/>
      <point x="120" y="700" type="line"/>
    </contour>
    <contour>
      <point x="648" y="90" type="line"/>
      <point x="248" y="700" type="line"/>
      <point x="648" y="1310" type="line"/>
      <point x="1050" y="700" type="line"/>
    </contour>
  </outline>
</glyph>
<glyph name="leftanglebracket-math" format="2">
  <advance width="1296"/>
  <unicode hex="27E8"/>
  <outline>
    <contour>
      <point x="1026" y="-440" type="line"/>
      <point x="1026" y="-282" type="line"/>
      <point x="366" y="664" type="line"/>
      <point x="1026" y="1610" type="line"/>
      <point x="1026" y="1768" type="line"/>
      <point x="254" y="664" type="line"/>
    </contour>
  </outline>
</glyph>
<glyph name="_part.currencyVerticalBar" format="2">
  <advance width="1424"/>
  <anchor x="786" y="1400" name="_top"/>
  <outline>
    <contour>
      <point x="736" y="-160" type="line"/>
      <point x="836" y="-160" type="line"/>
      <point x="836" y="1560" type="line"/>
      <point x="736" y="1560" type="line"/>
    </contour>
  </outline>
</glyph>
<glyph name="_part.cy-desc-lc" format="2">
  <advance width="1200"/>
  <anchor x="942" y="0" name="_descender"/>
  <outline>
    <contour>
      <point x="1074" y="-364" type="line"/>
      <point x="1178" y="-236" type="line"/>
      <point x="1178" y="104" type="line"/>
      <point x="862" y="104" type="line"/>
      <point x="862" y="0" type="line"/>
      <point x="1074" y="0" type="line"/>
    </contour>
  </outline>
</glyph>
<glyph name="_part.cy-desc-uc-stem" format="2">
  <advance width="572"/>
  <anchor x="-180" y="0" name="_descender"/>
  <outline>
    <contour>
      <point x="-180" y="-428" type="line"/>
      <point x="-72" y="-292" type="line"/>
      <point x="-72" y="108" type="line"/>
      <point x="-220" y="108" type="line"/>
      <point x="-220" y="0" type="line"/>
      <point x="-180" y="0" type="line"/>
    </contour>
  </outline>
</glyph>
<glyph name="_part.cy-descender-lc-center" format="2">
  <advance width="572"/>
  <anchor x="-152" y="0" name="_bottom"/>
  <outline>
    <contour>
      <point x="-204" y="-366" type="line"/>
      <point x="-100" y="-234" type="line"/>
      <point x="-100" y="28" type="line"/>
      <point x="-204" y="28" type="line"/>
    </contour>
  </outline>
</glyph>
<glyph name="_part.franc" format="2">
  <advance width="1130"/>
  <outline>
    <contour>
      <point x="200" y="0" type="line"/>
      <point x="312" y="0" type="line"/>
      <point x="312" y="670" type="line"/>
      <point x="946" y="670" type="line"/>
      <point x="946" y="774" type="line"/>
      <point x="312" y="774" type="line"/>
      <point x="312" y="1296" type="line"/>
      <point x="1006" y="1296" type="line"/>
      <point x="1006" y="1400" type="line"/>
      <point x="200" y="1400" type="line"/>
    </contour>
  </outline>
</glyph>
<glyph name="_part.kaverticalstroke-cy" format="2">
  <advance width="1046"/>
  <anchor x="434" y="512" name="center"/>
  <outline>
    <contour>
      <point x="846" y="0" type="line"/>
      <point x="986" y="0" type="line"/>
      <point x="632" y="522" type="line"/>
      <point x="914" y="960" type="line"/>
      <point x="794" y="960" type="line"/>
      <point x="508" y="518" type="line"/>
    </contour>
    <contour>
      <point x="170" y="0" type="line"/>
      <point x="282" y="0" type="line"/>
      <point x="280" y="460" type="line"/>
      <point x="564" y="460" type="line"/>
      <point x="564" y="564" type="line"/>
      <point x="280" y="564" type="line"/>
      <point x="282" y="1000" type="line"/>
      <point x="170" y="858" type="line"/>
    </contour>
  </outline>
</glyph>
<glyph name="_part.kip" format="2">
  <advance width="1296"/>
  <outline>
    <contour>
      <point x="1092" y="0" type="line"/>
      <point x="1230" y="0" type="line"/>
      <point x="690" y="682" type="line"/>
      <point x="1180" y="1400" type="line"/>
      <point x="1058" y="1400" type="line"/>
      <point x="560" y="680" type="line"/>
    </contour>
    <contour>
      <point x="316" y="0" type="line"/>
      <point x="428" y="0" type="line"/>
      <point x="428" y="1400" type="line"/>
      <point x="316" y="1400" type="line"/>
    </contour>
  </outline>
</glyph>
<glyph name="_part.ogonek" format="2">
  <advance width="2"/>
  <anchor x="-496" y="0" name="_ogonek"/>
  <outline>
    <contour>
      <point x="-656" y="-450" type="curve" smooth="yes"/>
      <point x="-601" y="-450"/>
      <point x="-544" y="-435"/>
      <point x="-496" y="-410" type="curve"/>
      <point x="-496" y="-293" type="line"/>
      <point x="-533" y="-321"/>
      <point x="-580" y="-340"/>
      <point x="-630" y="-340" type="curve" smooth="yes"/>
      <point x="-712" y="-340"/>
      <point x="-738" y="-291"/>
      <point x="-736" y="-229" type="curve" smooth="yes"/>
      <point x="-732" y="-105"/>
      <point x="-636" y="-38"/>
      <point x="-496" y="0" type="curve"/>
      <point x="-536" y="68" type="line"/>
      <point x="-704" y="25"/>
      <point x="-852" y="-86"/>
      <point x="-856" y="-255" type="curve" smooth="yes"/>
      <point x="-858" y="-362"/>
      <point x="-788" y="-450"/>
    </contour>
  </outline>
</glyph>
<glyph name="_part.peso" format="2">
  <advance width="1296"/>
  <outline>
    <contour>
      <point x="290" y="0" type="line"/>
      <point x="404" y="0" type="line"/>
      <point x="404" y="606" type="line"/>
      <point x="700" y="606" type="line" smooth="yes"/>
      <point x="976" y="606"/>
      <point x="1132" y="744"/>
      <point x="1132" y="1002" type="curve" smooth="yes"/>
      <point x="1132" y="1248"/>
      <point x="952" y="1400"/>
      <point x="702" y="1400" type="curve" smooth="yes"/>
      <point x="290" y="1400" type="line"/>
    </contour>
    <contour>
      <point x="404" y="710" type="line"/>
      <point x="404" y="1296" type="line"/>
      <point x="712" y="1296" type="line" smooth="yes"/>
      <point x="900" y="1296"/>
      <point x="1018" y="1178"/>
      <point x="1018" y="998" type="curve" smooth="yes"/>
      <point x="1018" y="810"/>
      <point x="906" y="710"/>
      <point x="710" y="710" type="curve" smooth="yes"/>
    </contour>
  </outline>
</glyph>
<glyph name="_part.rupee" format="2">
  <advance width="1296"/>
  <outline>
    <contour>
      <point x="686" y="0" type="line"/>
      <point x="828" y="0" type="line"/>
      <point x="358" y="616" type="line"/>
      <point x="612" y="640"/>
      <point x="768" y="786"/>
      <point x="768" y="998" type="curve" smooth="yes"/>
      <point x="768" y="1240"/>
      <point x="602" y="1400"/>
      <point x="336" y="1400" type="curve" smooth="yes"/>
      <point x="200" y="1400" type="line"/>
      <point x="200" y="1296" type="line"/>
      <point x="326" y="1296" type="line" smooth="yes"/>
      <point x="552" y="1296"/>
      <point x="658" y="1176"/>
      <point x="658" y="998" type="curve" smooth="yes"/>
      <point x="658" y="828"/>
      <point x="526" y="720"/>
      <point x="302" y="720" type="curve" smooth="yes"/>
      <point x="200" y="720" type="line"/>
      <point x="200" y="642" type="line"/>
    </contour>
  </outline>
</glyph>
<glyph name="_part.tse-cy" format="2">
  <advance width="1152"/>
  <anchor x="576" y="0" name="bottom"/>
  <anchor x="982" y="0" name="descender"/>
  <outline>
    <contour>
      <point x="170" y="0" type="line"/>
      <point x="982" y="0" type="line"/>
      <point x="982" y="1000" type="line"/>
      <point x="870" y="858" type="line"/>
      <point x="870" y="104" type="line"/>
      <point x="282" y="104" type="line"/>
      <point x="282" y="1000" type="line"/>
      <point x="170" y="858" type="line"/>
    </contour>
  </outline>
</glyph>
<glyph name="_part.verticalstroke" format="2">
  <advance width="1200"/>
  <anchor x="510" y="780" name="_center"/>
  <outline>
    <contour>
      <point x="460" y="500" type="line"/>
      <point x="560" y="500" type="line"/>
      <point x="560" y="1100" type="line"/>
      <point x="460" y="974" type="line"/>
    </contour>
  </outline>
</glyph>
<glyph name="acutecomb.narrow" format="2">
  <anchor x="72" y="960" name="_top"/>
  <outline>
    <contour>
      <point x="10" y="1170" type="line"/>
      <point x="116" y="1170" type="line"/>
      <point x="290" y="1504" type="line"/>
      <point x="170" y="1504" type="line"/>
    </contour>
  </outline>
</glyph>
<glyph name="aogonek.ss01" format="2">
  <advance width="1254"/>
  <anchor x="596" y="0" name="bottom"/>
  <anchor x="1084" y="0" name="ogonek"/>
  <anchor x="596" y="960" name="top"/>
  <outline>
    <contour>
      <point x="924" y="-450" type="curve" smooth="yes"/>
      <point x="979" y="-450"/>
      <point x="1036" y="-435"/>
      <point x="1084" y="-410" type="curve"/>
      <point x="1084" y="-293" type="line"/>
      <point x="1047" y="-321"/>
      <point x="1000" y="-340"/>
      <point x="950" y="-340" type="curve" smooth="yes"/>
      <point x="868" y="-340"/>
      <point x="842" y="-291"/>
      <point x="844" y="-229" type="curve" smooth="yes"/>
      <point x="848" y="-105"/>
      <point x="944" y="-38"/>
      <point x="1084" y="0" type="curve"/>
      <point x="1049.0" y="59.5" type="line"/>
      <point x="879.0" y="18.5"/>
      <point x="728.0" y="-89.5"/>
      <point x="724" y="-255" type="curve" smooth="yes"/>
      <point x="722" y="-362"/>
      <point x="792" y="-450"/>
    </contour>
    <component base="a.ss01"/>
  </outline>
</glyph>
<glyph name="caroncomb.case" format="2">
  <anchor x="334" y="1398" name="_top"/>
  <outline>
    <contour>
      <point x="264" y="1592" type="line"/>
      <point x="388" y="1592" type="line"/>
      <point x="658" y="1904" type="line"/>
      <point x="534" y="1904" type="line"/>
      <point x="328" y="1668" type="line"/>
      <point x="130" y="1904" type="line"/>
      <point x="10" y="1904" type="line"/>
    </contour>
  </outline>
</glyph>
<glyph name="circumflexcomb.case" format="2">
  <anchor x="334" y="1398" name="_top"/>
  <anchor x="334" y="1848" name="top"/>
  <anchor x="652" y="1646" name="top_right"/>
  <outline>
    <contour>
      <point x="10" y="1592" type="line"/>
      <point x="134" y="1592" type="line"/>
      <point x="340" y="1828" type="line"/>
      <point x="538" y="1592" type="line"/>
      <point x="658" y="1592" type="line"/>
      <point x="406" y="1904" type="line"/>
      <point x="280" y="1904" type="line"/>
    </contour>
  </outline>
</glyph>
<glyph name="dblgravecomb.narrow" format="2">
  <anchor x="318" y="960" name="_top"/>
  <outline>
    <contour>
      <point x="510" y="1170" type="line"/>
      <point x="402" y="1504" type="line"/>
      <point x="284" y="1504" type="line"/>
      <point x="404" y="1170" type="line"/>
    </contour>
    <contour>
      <point x="234" y="1170" type="line"/>
      <point x="126" y="1504" type="line"/>
      <point x="10" y="1504" type="line"/>
      <point x="130" y="1170" type="line"/>
    </contour>
  </outline>
</glyph>
<glyph name="ge-cy.loclBGR" format="2">
  <advance width="922"/>
  <anchor x="482" y="0" name="bottom"/>
  <anchor x="464" y="960" name="top"/>
  <outline>
    <contour>
      <point x="490" y="-30" type="curve" smooth="yes"/>
      <point x="614" y="-30"/>
      <point x="740" y="12"/>
      <point x="828" y="76" type="curve"/>
      <point x="828" y="190" type="line"/>
      <point x="744" y="118"/>
      <point x="618" y="78"/>
      <point x="492" y="78" type="curve" smooth="yes"/>
      <point x="342" y="78"/>
      <point x="246" y="148"/>
      <point x="246" y="248" type="curve" smooth="yes"/>
      <point x="246" y="388"/>
      <point x="372" y="412"/>
      <point x="504" y="450" type="curve" smooth="yes"/>
      <point x="646" y="491"/>
      <point x="798" y="558"/>
      <point x="798" y="730" type="curve" smooth="yes"/>
      <point x="798" y="894"/>
      <point x="652" y="1000"/>
      <point x="456" y="1000" type="curve" smooth="yes"/>
      <point x="336" y="1000"/>
      <point x="224" y="964"/>
      <point x="138" y="900" type="curve"/>
      <point x="138" y="786" type="line"/>
      <point x="210" y="852"/>
      <point x="336" y="892"/>
      <point x="458" y="892" type="curve" smooth="yes"/>
      <point x="586" y="892"/>
      <point x="678" y="824"/>
      <point x="678" y="730" type="curve" smooth="yes"/>
      <point x="678" y="608"/>
      <point x="580" y="576"/>
      <point x="450" y="538" type="curve" smooth="yes"/>
      <point x="300" y="494"/>
      <point x="126" y="428"/>
      <point x="126" y="248" type="curve" smooth="yes"/>
      <point x="126" y="70"/>
      <point x="272" y="-30"/>
    </contour>
  </outline>
</glyph>
<glyph name="gravecomb.narrow" format="2">
  <anchor x="216" y="960" name="_top"/>
  <outline>
    <contour>
      <point x="182" y="1170" type="line"/>
      <point x="292" y="1170" type="line"/>
      <point x="134" y="1504" type="line"/>
      <point x="10" y="1504" type="line"/>
    </contour>
  </outline>
</glyph>
<glyph name="hookabovecomb.case" format="2">
  <anchor x="228" y="1398" name="_top"/>
  <outline>
    <contour>
      <point x="166" y="1592" type="curve"/>
      <point x="260" y="1592" type="line"/>
      <point x="224" y="1664"/>
      <point x="236" y="1686"/>
      <point x="330" y="1724" type="curve" smooth="yes"/>
      <point x="434" y="1766"/>
      <point x="478" y="1798"/>
      <point x="478" y="1874" type="curve" smooth="yes"/>
      <point x="478" y="1960"/>
      <point x="372" y="2024"/>
      <point x="230" y="2024" type="curve" smooth="yes"/>
      <point x="152" y="2024"/>
      <point x="74" y="2010"/>
      <point x="10" y="1986" type="curve"/>
      <point x="10" y="1904" type="line"/>
      <point x="68" y="1928"/>
      <point x="158" y="1942"/>
      <point x="224" y="1942" type="curve" smooth="yes"/>
      <point x="312" y="1942"/>
      <point x="382" y="1910"/>
      <point x="382" y="1856" type="curve" smooth="yes"/>
      <point x="382" y="1820"/>
      <point x="368" y="1804"/>
      <point x="260" y="1768" type="curve" smooth="yes"/>
      <point x="148" y="1730"/>
      <point x="120" y="1676"/>
    </contour>
  </outline>
</glyph>
<glyph name="hookabovecomb.narrow" format="2">
  <anchor x="198" y="960" name="_top"/>
  <outline>
    <contour>
      <point x="142" y="1170" type="curve"/>
      <point x="230" y="1170" type="line"/>
      <point x="200" y="1248"/>
      <point x="212" y="1274"/>
      <point x="290" y="1314" type="curve" smooth="yes"/>
      <point x="384" y="1362"/>
      <point x="414" y="1398"/>
      <point x="414" y="1474" type="curve" smooth="yes"/>
      <point x="414" y="1566"/>
      <point x="322" y="1634"/>
      <point x="200" y="1634" type="curve" smooth="yes"/>
      <point x="138" y="1634"/>
      <point x="70" y="1622"/>
      <point x="10" y="1594" type="curve"/>
      <point x="10" y="1508" type="line"/>
      <point x="60" y="1534"/>
      <point x="128" y="1550"/>
      <point x="190" y="1550" type="curve" smooth="yes"/>
      <point x="264" y="1550"/>
      <point x="318" y="1514"/>
      <point x="318" y="1456" type="curve" smooth="yes"/>
      <point x="318" y="1410"/>
      <point x="300" y="1396"/>
      <point x="220" y="1360" type="curve" smooth="yes"/>
      <point x="126" y="1318"/>
      <point x="102" y="1262"/>
    </contour>
  </outline>
</glyph>
<glyph name="horncomb.alt_case" format="2">
  <anchor x="118" y="1400" name="_horn"/>
  <outline>
    <contour>
      <point x="218" y="1188" type="curve" smooth="yes"/>
      <point x="348" y="1188"/>
      <point x="416" y="1278"/>
      <point x="416" y="1382" type="curve" smooth="yes"/>
      <point x="416" y="1438"/>
      <point x="395" y="1502"/>
      <point x="353" y="1560" type="curve"/>
      <point x="244" y="1560" type="line"/>
      <point x="294" y="1484"/>
      <point x="308" y="1418"/>
      <point x="308" y="1380" type="curve" smooth="yes"/>
      <point x="308" y="1316"/>
      <point x="276" y="1270"/>
      <point x="198" y="1270" type="curve" smooth="yes"/>
      <point x="150" y="1270"/>
      <point x="72" y="1300"/>
      <point x="10" y="1330" type="curve"/>
      <point x="10" y="1256" type="line"/>
      <point x="74" y="1222"/>
      <point x="154" y="1188"/>
    </contour>
  </outline>
</glyph>
<glyph name="horncomb.case" format="2">
  <anchor x="412" y="1400" name="_horn"/>
  <outline>
    <contour>
      <point x="552" y="1228" type="curve" smooth="yes"/>
      <point x="682" y="1228"/>
      <point x="750" y="1308"/>
      <point x="750" y="1402" type="curve" smooth="yes"/>
      <point x="750" y="1451"/>
      <point x="729" y="1507"/>
      <point x="688" y="1560" type="curve"/>
      <point x="578" y="1560" type="line"/>
      <point x="619" y="1504"/>
      <point x="642" y="1447"/>
      <point x="642" y="1402" type="curve" smooth="yes"/>
      <point x="642" y="1347"/>
      <point x="609" y="1310"/>
      <point x="532" y="1310" type="curve" smooth="yes"/>
      <point x="436" y="1310"/>
      <point x="226" y="1430"/>
      <point x="10" y="1430" type="curve"/>
      <point x="10" y="1362" type="line"/>
      <point x="238" y="1362"/>
      <point x="426" y="1228"/>
    </contour>
  </outline>
</glyph>
<glyph name="jdotless.calt" format="2">
  <advance width="452"/>
  <anchor x="226" y="960" name="top"/>
  <outline>
    <contour>
      <point x="94" y="-450" type="curve" smooth="yes"/>
      <point x="211" y="-450"/>
      <point x="282" y="-381"/>
      <point x="282" y="-234" type="curve" smooth="yes"/>
      <point x="282" y="1000" type="line"/>
      <point x="170" y="858" type="line"/>
      <point x="170" y="-214" type="line" smooth="yes"/>
      <point x="170" y="-298"/>
      <point x="148" y="-342"/>
      <point x="78" y="-342" type="curve" smooth="yes"/>
      <point x="52" y="-342"/>
      <point x="26" y="-336"/>
      <point x="1" y="-325" type="curve"/>
      <point x="1" y="-437" type="line"/>
      <point x="29" y="-445"/>
      <point x="60" y="-450"/>
    </contour>
  </outline>
</glyph>
<glyph name="one.dnom" format="2">
  <advance width="582"/>
  <outline>
    <contour>
      <point x="304" y="0" type="line"/>
      <point x="402" y="0" type="line"/>
      <point x="402" y="930" type="line"/>
      <point x="394" y="930" type="line"/>
      <point x="42" y="800" type="line"/>
      <point x="42" y="710" type="line"/>
      <point x="304" y="804" type="line"/>
    </contour>
  </outline>
</glyph>
<glyph name="one.numr" format="2">
  <advance width="582"/>
  <outline>
    <contour>
      <point x="304" y="490" type="line"/>
      <point x="402" y="490" type="line"/>
      <point x="402" y="1420" type="line"/>
      <point x="394" y="1420" type="line"/>
      <point x="42" y="1290" type="line"/>
      <point x="42" y="1200" type="line"/>
      <point x="304" y="1294" type="line"/>
    </contour>
  </outline>
</glyph>
<glyph name="ordfeminine.ss01" format="2">
  <advance width="888"/>
  <anchor x="422" y="722" name="bottom"/>
  <anchor x="758" y="722" name="ogonek"/>
  <anchor x="422" y="1354" name="top"/>
  <outline>
    <contour>
      <point x="408" y="702" type="curve" smooth="yes"/>
      <point x="542" y="702"/>
      <point x="626" y="764"/>
      <point x="678" y="846" type="curve"/>
      <point x="662" y="868" type="line"/>
      <point x="662" y="722" type="line"/>
      <point x="758" y="722" type="line"/>
      <point x="758" y="1382" type="line"/>
      <point x="632" y="1258" type="line"/>
      <point x="632" y="1188" type="line"/>
      <point x="678" y="1230" type="line"/>
      <point x="626" y="1312"/>
      <point x="542" y="1374"/>
      <point x="408" y="1374" type="curve" smooth="yes"/>
      <point x="208" y="1374"/>
      <point x="70" y="1224"/>
      <point x="70" y="1038" type="curve" smooth="yes"/>
      <point x="70" y="852"/>
      <point x="208" y="702"/>
    </contour>
    <contour>
      <point x="416" y="796" type="curve" smooth="yes"/>
      <point x="276" y="796"/>
      <point x="176" y="890"/>
      <point x="176" y="1038" type="curve" smooth="yes"/>
      <point x="176" y="1186"/>
      <point x="276" y="1280"/>
      <point x="416" y="1280" type="curve" smooth="yes"/>
      <point x="556" y="1280"/>
      <point x="656" y="1186"/>
      <point x="656" y="1038" type="curve" smooth="yes"/>
      <point x="656" y="890"/>
      <point x="556" y="796"/>
    </contour>
  </outline>
</glyph>
<glyph name="periodcentered.loclCAT.case" format="2">
  <advance width="572"/>
  <outline>
    <contour>
      <point x="-270" y="630" type="curve" smooth="yes"/>
      <point x="-208" y="630"/>
      <point x="-160" y="674"/>
      <point x="-160" y="734" type="curve" smooth="yes"/>
      <point x="-160" y="794"/>
      <point x="-208" y="838"/>
      <point x="-270" y="838" type="curve" smooth="yes"/>
      <point x="-332" y="838"/>
      <point x="-380" y="794"/>
      <point x="-380" y="734" type="curve" smooth="yes"/>
      <point x="-380" y="674"/>
      <point x="-332" y="630"/>
    </contour>
  </outline>
</glyph>
<glyph name="tildecomb.case" format="2">
  <anchor x="341" y="1398" name="_top"/>
  <anchor x="341" y="1758" name="top"/>
  <outline>
    <contour>
      <point x="10" y="1662" type="line"/>
      <point x="50" y="1714"/>
      <point x="105" y="1741"/>
      <point x="180" y="1741" type="curve" smooth="yes"/>
      <point x="268" y="1741"/>
      <point x="383" y="1662"/>
      <point x="494" y="1662" type="curve" smooth="yes"/>
      <point x="569" y="1662"/>
      <point x="629" y="1689"/>
      <point x="674" y="1736" type="curve"/>
      <point x="674" y="1838" type="line"/>
      <point x="636" y="1788"/>
      <point x="583" y="1759"/>
      <point x="504" y="1759" type="curve" smooth="yes"/>
      <point x="417" y="1759"/>
      <point x="302" y="1838"/>
      <point x="190" y="1838" type="curve" smooth="yes"/>
      <point x="118" y="1838"/>
      <point x="57" y="1813"/>
      <point x="10" y="1764" type="curve"/>
    </contour>
  </outline>
</glyph>
<glyph name="tildecomb.narrow" format="2">
  <anchor x="290" y="960" name="_top"/>
  <anchor x="290" y="1344" name="top"/>
  <outline>
    <contour>
      <point x="10" y="1246" type="line"/>
      <point x="44" y="1302"/>
      <point x="90" y="1330"/>
      <point x="152" y="1330" type="curve" smooth="yes"/>
      <point x="226" y="1330"/>
      <point x="323" y="1246"/>
      <point x="417" y="1246" type="curve" smooth="yes"/>
      <point x="480" y="1246"/>
      <point x="530" y="1275"/>
      <point x="568" y="1325" type="curve"/>
      <point x="568" y="1430" type="line"/>
      <point x="534" y="1374"/>
      <point x="488" y="1346"/>
      <point x="426" y="1346" type="curve" smooth="yes"/>
      <point x="352" y="1346"/>
      <point x="255" y="1430"/>
      <point x="161" y="1430" type="curve" smooth="yes"/>
      <point x="100" y="1430"/>
      <point x="49" y="1403"/>
      <point x="10" y="1351" type="curve"/>
    </contour>
  </outline>
</glyph>
<glyph name="two.dnom" format="2">
  <advance width="824"/>
  <outline>
    <contour>
      <point x="108" y="0" type="line"/>
      <point x="712" y="0" type="line"/>
      <point x="732" y="92" type="line"/>
      <point x="244" y="92" type="line"/>
      <point x="420" y="248" type="line" smooth="yes"/>
      <point x="626" y="430"/>
      <point x="700" y="540"/>
      <point x="700" y="664" type="curve" smooth="yes"/>
      <point x="700" y="826"/>
      <point x="572" y="930"/>
      <point x="388" y="930" type="curve" smooth="yes"/>
      <point x="301" y="930"/>
      <point x="221" y="906"/>
      <point x="156" y="860" type="curve"/>
      <point x="156" y="762" type="line"/>
      <point x="208" y="808"/>
      <point x="292" y="836"/>
      <point x="372" y="836" type="curve" smooth="yes"/>
      <point x="512" y="836"/>
      <point x="598" y="768"/>
      <point x="598" y="658" type="curve" smooth="yes"/>
      <point x="598" y="544"/>
      <point x="512" y="442"/>
      <point x="314" y="266" type="curve" smooth="yes"/>
      <point x="108" y="82" type="line"/>
    </contour>
  </outline>
</glyph>
<glyph name="two.numr" format="2">
  <advance width="824"/>
  <outline>
    <contour>
      <point x="108" y="490" type="line"/>
      <point x="712" y="490" type="line"/>
      <point x="732" y="582" type="line"/>
      <point x="244" y="582" type="line"/>
      <point x="420" y="738" type="line" smooth="yes"/>
      <point x="636" y="928"/>
      <point x="700" y="1038"/>
      <point x="700" y="1154" type="curve" smooth="yes"/>
      <point x="700" y="1316"/>
      <point x="572" y="1420"/>
      <point x="388" y="1420" type="curve" smooth="yes"/>
      <point x="301" y="1420"/>
      <point x="221" y="1396"/>
      <point x="156" y="1350" type="curve"/>
      <point x="156" y="1252" type="line"/>
      <point x="216" y="1304"/>
      <point x="300" y="1326"/>
      <point x="372" y="1326" type="curve" smooth="yes"/>
      <point x="512" y="1326"/>
      <point x="598" y="1258"/>
      <point x="598" y="1148" type="curve" smooth="yes"/>
      <point x="598" y="1034"/>
      <point x="512" y="932"/>
      <point x="314" y="756" type="curve" smooth="yes"/>
      <point x="108" y="572" type="line"/>
    </contour>
  </outline>
</glyph>
